<?xml version="1.0" encoding="utf-8"?>
<!-- Generator: Adobe Illustrator 27.5.0, SVG Export Plug-In . SVG Version: 6.00 Build 0)  -->
<svg version="1.1" xmlns="http://www.w3.org/2000/svg" xmlns:xlink="http://www.w3.org/1999/xlink" x="0px" y="0px"
	 viewBox="0 0 750 500" style="enable-background:new 0 0 750 500;" xml:space="preserve">
<g id="Background_Complete">
	<g>
		<g>
			<g>
				<g>
					<rect x="528.192" y="53.314" style="fill:#EBEBEB;" width="130.596" height="234.606"/>
				</g>
			</g>
		</g>
		<g>
			<g>
				<g>
					<rect x="533.41" y="60.117" style="fill:#FAFAFA;" width="118.813" height="220.814"/>
				</g>
			</g>
		</g>
		<g>
			<g>
				<g>
					<polygon style="fill:#E0E0E0;" points="664.311,290.035 658.787,287.92 658.787,49.335 664.311,49.335 					"/>
				</g>
			</g>
		</g>
		<g>
			<g>
				<g>
					<rect x="533.41" y="123.639" style="fill:#E0E0E0;" width="121.393" height="2.351"/>
				</g>
			</g>
		</g>
		<g>
			<g>
				<g>
					<rect x="533.41" y="176.223" style="fill:#E0E0E0;" width="121.393" height="2.351"/>
				</g>
			</g>
		</g>
		<g>
			<g>
				<g>
					<rect x="533.41" y="228.808" style="fill:#E0E0E0;" width="121.393" height="2.351"/>
				</g>
			</g>
		</g>
		<g>
			<g>
				<g>
					
						<rect x="511.628" y="203.002" transform="matrix(6.123234e-17 -1 1 6.123234e-17 386.8134 798.82)" style="fill:#E0E0E0;" width="162.377" height="6.003"/>
				</g>
			</g>
		</g>
		<g>
			<g>
				<g>
					<rect x="556.288" y="60.117" style="fill:#E0E0E0;" width="2.719" height="64.697"/>
				</g>
			</g>
		</g>
		<g>
			<g>
				<g>
					<rect x="579.743" y="60.117" style="fill:#E0E0E0;" width="2.719" height="64.697"/>
				</g>
			</g>
		</g>
		<g>
			<g>
				<g>
					<rect x="603.198" y="60.117" style="fill:#E0E0E0;" width="2.719" height="64.697"/>
				</g>
			</g>
		</g>
		<g>
			<g>
				<g>
					<rect x="626.653" y="60.117" style="fill:#E0E0E0;" width="2.719" height="64.697"/>
				</g>
			</g>
		</g>
		<g>
			<g>
				<g>
					<rect x="522.668" y="49.335" style="fill:#E0E0E0;" width="5.523" height="240.037"/>
				</g>
			</g>
		</g>
		<g>
			<g>
				<g>
					<rect x="522.668" y="46.913" style="fill:#E0E0E0;" width="141.643" height="6.401"/>
				</g>
			</g>
		</g>
		<g>
			<g>
				<g>
					<rect x="518.749" y="290.824" style="fill:#E0E0E0;" width="149.301" height="5.964"/>
				</g>
			</g>
		</g>
		<g>
			<g>
				<g>
					<polygon style="fill:#E0E0E0;" points="658.787,287.92 668.05,290.824 518.749,290.824 528.192,287.92 					"/>
				</g>
			</g>
		</g>
	</g>
	<g>
		<g>
			<g>
				<rect x="61.859" y="345.51" style="fill:#EBEBEB;" width="40.36" height="10.677"/>
			</g>
		</g>
		<g>
			<g>
				<g>
					<path style="fill:#E0E0E0;" d="M85.153,367.433c-0.004-0.004-0.008-0.07-0.013-0.194c-0.003-0.143-0.008-0.323-0.013-0.548
						c-0.007-0.503-0.017-1.203-0.03-2.101c-0.016-1.843-0.04-4.493-0.069-7.834l0.125,0.125
						c-9.215,0.018-23.871,0.048-40.357,0.081c0.091-0.091-0.207,0.205,0.203-0.205v0.003v0.005v0.011v0.021v0.043v0.086v0.172
						v0.343v0.685c0,0.456,0,0.91,0,1.362c0,0.905,0,1.803-0.001,2.694c-0.001,1.782-0.002,3.535-0.003,5.252l-0.201-0.201
						c11.493,0.036,21.549,0.069,28.762,0.091c3.593,0.024,6.476,0.044,8.489,0.057c0.98,0.011,1.747,0.02,2.296,0.026
						c0.247,0.005,0.445,0.01,0.6,0.013C85.077,367.425,85.149,367.429,85.153,367.433c0.004,0.004-0.059,0.009-0.187,0.013
						c-0.149,0.003-0.339,0.008-0.576,0.013c-0.539,0.006-1.291,0.015-2.252,0.026c-2.003,0.014-4.87,0.033-8.443,0.057
						c-7.248,0.023-17.353,0.055-28.902,0.091l-0.201,0.001l0-0.202c-0.001-1.717-0.002-3.47-0.003-5.252
						c0-0.891,0-1.789-0.001-2.694c0-0.452,0-0.907,0-1.362l0-0.685v-0.343v-0.172v-0.086v-0.043v-0.021v-0.011v-0.005v-0.003
						c0.411-0.411,0.115-0.114,0.208-0.206c16.486,0.033,31.142,0.062,40.357,0.081l0.126,0l-0.001,0.125
						c-0.03,3.373-0.053,6.048-0.069,7.909c-0.013,0.886-0.023,1.577-0.03,2.073c-0.005,0.216-0.01,0.388-0.013,0.526
						C85.161,367.38,85.157,367.437,85.153,367.433z"/>
				</g>
			</g>
		</g>
	</g>
	<g>
		<g>
			<g>
				<g>
					<path style="fill:#E0E0E0;" d="M93.874,69.543c-0.004-0.004-0.008-0.07-0.012-0.194c-0.003-0.143-0.008-0.323-0.013-0.548
						c-0.007-0.502-0.017-1.203-0.03-2.101c-0.016-1.843-0.04-4.493-0.069-7.834l0.125,0.125
						c-9.215,0.018-23.871,0.048-40.357,0.081c0.091-0.092-0.207,0.205,0.203-0.205v0.003v0.005v0.011v0.021v0.043v0.086v0.172
						l0,0.343v0.685c0,0.455,0,0.91,0,1.362c0,0.905,0,1.803-0.001,2.694c-0.001,1.782-0.002,3.535-0.003,5.252l-0.201-0.201
						c11.493,0.036,21.549,0.069,28.761,0.091c3.593,0.024,6.476,0.044,8.489,0.057c0.979,0.011,1.747,0.02,2.296,0.026
						c0.247,0.005,0.445,0.01,0.6,0.013C93.798,69.534,93.87,69.538,93.874,69.543c0.004,0.004-0.059,0.009-0.187,0.013
						c-0.149,0.003-0.339,0.008-0.576,0.013c-0.539,0.006-1.291,0.015-2.252,0.026c-2.003,0.014-4.87,0.033-8.443,0.057
						c-7.248,0.023-17.353,0.055-28.902,0.091l-0.201,0.001l0-0.202c-0.001-1.717-0.002-3.47-0.003-5.252
						c0-0.891-0.001-1.79-0.001-2.694c0-0.452,0-0.907,0-1.362l0-0.685v-0.343v-0.172v-0.086v-0.043v-0.021v-0.011v-0.005v-0.003
						c0.411-0.411,0.116-0.114,0.208-0.206c16.486,0.033,31.142,0.062,40.357,0.081l0.126,0l-0.001,0.125
						c-0.029,3.373-0.053,6.048-0.069,7.909c-0.013,0.886-0.023,1.577-0.03,2.073c-0.005,0.216-0.01,0.388-0.013,0.526
						C93.882,69.49,93.878,69.547,93.874,69.543z"/>
				</g>
			</g>
		</g>
	</g>
	<g>
		<g>
			<g>
				<g>
					<path style="fill:#E0E0E0;" d="M710.452,350.86c-0.004-0.004-0.008-0.07-0.013-0.194c-0.003-0.143-0.008-0.323-0.013-0.548
						c-0.007-0.503-0.017-1.203-0.03-2.101c-0.016-1.843-0.04-4.493-0.069-7.834l0.125,0.125c-9.215,0.018-23.871,0.048-40.357,0.08
						c0.091-0.091-0.207,0.205,0.203-0.205v0.003v0.005v0.011v0.022v0.043v0.086v0.172v0.343v0.685c0,0.456,0,0.91,0,1.362
						c0,0.905-0.001,1.803-0.001,2.695c-0.001,1.782-0.002,3.535-0.003,5.252l-0.201-0.201c11.493,0.036,21.549,0.068,28.761,0.091
						c3.593,0.024,6.476,0.044,8.489,0.057c0.98,0.011,1.747,0.02,2.296,0.026c0.247,0.005,0.445,0.01,0.601,0.013
						C710.376,350.851,710.448,350.856,710.452,350.86c0.004,0.004-0.059,0.009-0.187,0.013c-0.149,0.003-0.339,0.008-0.576,0.013
						c-0.539,0.006-1.291,0.015-2.252,0.026c-2.003,0.014-4.87,0.033-8.443,0.057c-7.248,0.023-17.353,0.055-28.902,0.091
						l-0.201,0.001l0-0.202c-0.001-1.717-0.002-3.47-0.003-5.252c0-0.891-0.001-1.79-0.001-2.695c0-0.452,0-0.906,0-1.362v-0.685
						v-0.343v-0.172v-0.086v-0.043v-0.022v-0.011v-0.005v-0.003c0.411-0.411,0.115-0.114,0.208-0.206
						c16.486,0.033,31.142,0.062,40.357,0.081l0.126,0l-0.001,0.125c-0.03,3.373-0.053,6.048-0.069,7.909
						c-0.013,0.886-0.023,1.577-0.03,2.073c-0.005,0.216-0.01,0.389-0.013,0.526C710.46,350.807,710.456,350.864,710.452,350.86z"/>
				</g>
			</g>
		</g>
	</g>
	<g>
		<g>
			<g>
				<g>
					<path style="fill:#E0E0E0;" d="M173.03,131.681c-0.004-0.004-0.008-0.07-0.012-0.194c-0.003-0.143-0.008-0.323-0.013-0.548
						c-0.007-0.502-0.018-1.203-0.03-2.101c-0.016-1.843-0.04-4.493-0.069-7.834l0.125,0.125
						c-9.215,0.018-23.871,0.048-40.357,0.081c0.091-0.092-0.207,0.205,0.203-0.205v0.003v0.005v0.011v0.021v0.043v0.086l0,0.172
						v0.343v0.685c0,0.456,0,0.91,0,1.362c0,0.905-0.001,1.803-0.001,2.694c-0.001,1.782-0.002,3.535-0.003,5.252l-0.201-0.201
						c11.493,0.037,21.549,0.068,28.762,0.091c3.593,0.024,6.476,0.044,8.49,0.057c0.979,0.011,1.747,0.02,2.295,0.027
						c0.247,0.005,0.445,0.01,0.6,0.013C172.954,131.672,173.026,131.677,173.03,131.681c0.004,0.004-0.059,0.009-0.187,0.013
						c-0.149,0.003-0.339,0.007-0.576,0.013c-0.539,0.006-1.291,0.015-2.252,0.026c-2.003,0.014-4.87,0.033-8.443,0.057
						c-7.248,0.023-17.353,0.055-28.902,0.092l-0.201,0.001l0-0.202c-0.001-1.717-0.002-3.47-0.003-5.252
						c0-0.891-0.001-1.789-0.001-2.694c0-0.452,0-0.906,0-1.362l0-0.685v-0.343v-0.172v-0.086v-0.043v-0.021v-0.011v-0.005v-0.003
						c0.411-0.412,0.116-0.114,0.208-0.206c16.486,0.033,31.142,0.062,40.357,0.081l0.126,0l-0.001,0.125
						c-0.029,3.373-0.053,6.048-0.069,7.909c-0.013,0.886-0.023,1.577-0.03,2.073c-0.005,0.216-0.01,0.389-0.013,0.526
						C173.039,131.628,173.035,131.685,173.03,131.681z"/>
				</g>
			</g>
		</g>
		<g>
			<g>
				<g>
					<path style="fill:#E0E0E0;" d="M178.503,121.004c-0.005-0.005-0.01-0.074-0.015-0.203c-0.004-0.153-0.01-0.339-0.016-0.566
						c-0.009-0.525-0.021-1.24-0.037-2.141c-0.019-1.872-0.046-4.516-0.08-7.767l0.148,0.148
						c-6.282,0.015-14.828,0.035-24.248,0.058c-0.185,0.184,0.248-0.251,0.204-0.205v0.003v0.005v0.011v0.022v0.044v0.088l0,0.175
						v0.35l0,0.698c0,0.464,0,0.926-0.001,1.385c-0.001,0.918-0.001,1.824-0.002,2.718c-0.003,1.786-0.005,3.518-0.007,5.177
						l-0.196-0.196c7,0.038,13.027,0.07,17.347,0.093c2.13,0.023,3.838,0.041,5.053,0.054c0.568,0.01,1.019,0.018,1.363,0.025
						C178.328,120.988,178.494,120.996,178.503,121.004c0.008,0.008-0.143,0.016-0.44,0.024c-0.333,0.006-0.771,0.014-1.322,0.025
						c-1.205,0.013-2.897,0.031-5.008,0.054c-4.352,0.023-10.425,0.056-17.479,0.093l-0.196,0.001l0-0.197
						c-0.002-1.659-0.005-3.391-0.007-5.177c-0.001-0.893-0.001-1.8-0.002-2.718c0-0.459,0-0.921-0.001-1.385l0-0.698v-0.35v-0.175
						v-0.088v-0.044v-0.022v-0.011v-0.005v-0.003c-0.045,0.043,0.39-0.391,0.207-0.207c9.419,0.022,17.966,0.043,24.248,0.058
						l0.149,0l-0.001,0.147c-0.033,3.289-0.06,5.963-0.079,7.857c-0.016,0.887-0.028,1.59-0.037,2.108
						C178.523,120.769,178.513,121.014,178.503,121.004z"/>
				</g>
			</g>
		</g>
	</g>
	<g>
		<g>
			<g>
				<g>
					<path style="fill:#E0E0E0;" d="M704.876,128.187c-0.004-0.004-0.008-0.07-0.012-0.194c-0.003-0.143-0.008-0.323-0.013-0.548
						c-0.007-0.502-0.017-1.203-0.03-2.101c-0.016-1.843-0.04-4.493-0.069-7.834l0.125,0.125
						c-9.215,0.018-23.871,0.048-40.357,0.081c0.091-0.092-0.207,0.205,0.203-0.205v0.003v0.005v0.011v0.021v0.043v0.086l0,0.172
						v0.343v0.685c0,0.456,0,0.91,0,1.362c0,0.905-0.001,1.803-0.001,2.694c-0.001,1.782-0.002,3.535-0.003,5.252l-0.201-0.201
						c11.493,0.037,21.549,0.069,28.762,0.091c3.593,0.024,6.476,0.044,8.489,0.057c0.98,0.011,1.747,0.02,2.296,0.027
						c0.247,0.005,0.445,0.01,0.6,0.013C704.8,128.178,704.872,128.182,704.876,128.187c0.004,0.004-0.059,0.009-0.187,0.013
						c-0.149,0.003-0.339,0.008-0.576,0.013c-0.539,0.006-1.291,0.015-2.252,0.026c-2.003,0.014-4.87,0.033-8.443,0.057
						c-7.248,0.023-17.353,0.055-28.902,0.091l-0.201,0.001l0-0.202c-0.001-1.717-0.002-3.47-0.003-5.252
						c0-0.891,0-1.789-0.001-2.694c0-0.452,0-0.906,0-1.362v-0.685v-0.343v-0.172v-0.086v-0.043v-0.021v-0.011v-0.005v-0.003
						c0.411-0.412,0.115-0.114,0.208-0.206c16.486,0.033,31.142,0.062,40.357,0.081l0.126,0l-0.001,0.125
						c-0.03,3.373-0.053,6.048-0.069,7.909c-0.013,0.886-0.023,1.577-0.03,2.073c-0.005,0.216-0.01,0.388-0.013,0.526
						C704.884,128.134,704.88,128.191,704.876,128.187z"/>
				</g>
			</g>
		</g>
		<g>
			<g>
				<g>
					<path style="fill:#E0E0E0;" d="M710.349,117.51c-0.005-0.005-0.01-0.074-0.016-0.203c-0.004-0.153-0.01-0.339-0.016-0.566
						c-0.009-0.525-0.021-1.24-0.037-2.141c-0.019-1.872-0.046-4.516-0.08-7.767l0.148,0.148
						c-6.282,0.015-14.828,0.035-24.248,0.058c-0.185,0.184,0.248-0.251,0.204-0.205v0.003v0.005v0.011v0.022v0.044v0.088l0,0.175
						v0.35l0,0.698c0,0.464,0,0.926,0,1.385c-0.001,0.918-0.001,1.824-0.002,2.718c-0.003,1.786-0.005,3.518-0.007,5.177
						l-0.196-0.196c7,0.037,13.027,0.07,17.347,0.093c2.13,0.023,3.838,0.041,5.053,0.054c0.568,0.01,1.02,0.018,1.363,0.024
						C710.174,117.494,710.34,117.502,710.349,117.51c0.008,0.008-0.143,0.016-0.44,0.024c-0.333,0.006-0.771,0.014-1.322,0.025
						c-1.205,0.013-2.897,0.031-5.008,0.054c-4.352,0.023-10.425,0.055-17.479,0.093l-0.196,0.001l0-0.197
						c-0.002-1.659-0.005-3.391-0.007-5.177c-0.001-0.893-0.001-1.8-0.002-2.718c0-0.459,0-0.921,0-1.385l0-0.698v-0.35v-0.175
						v-0.088v-0.044v-0.022v-0.011v-0.005v-0.003c-0.045,0.043,0.39-0.391,0.207-0.207c9.419,0.022,17.966,0.043,24.248,0.058
						l0.149,0l-0.002,0.147c-0.033,3.289-0.06,5.963-0.079,7.857c-0.016,0.887-0.028,1.59-0.037,2.108
						C710.369,117.275,710.359,117.52,710.349,117.51z"/>
				</g>
			</g>
		</g>
	</g>
	<g>
		<g>
			<g>
				<rect x="61.657" y="206.066" style="fill:#E0E0E0;" width="40.36" height="10.677"/>
			</g>
		</g>
		<g>
			<g>
				<rect x="90.675" y="184.143" style="fill:#EBEBEB;" width="40.36" height="10.677"/>
			</g>
		</g>
		<g>
			<g>
				<g>
					<path style="fill:#E0E0E0;" d="M113.969,206.066c-0.004-0.004-0.008-0.07-0.013-0.194c-0.003-0.143-0.008-0.323-0.013-0.548
						c-0.007-0.503-0.017-1.203-0.03-2.101c-0.016-1.843-0.04-4.493-0.069-7.834l0.125,0.125
						c-9.215,0.018-23.871,0.048-40.357,0.081c0.091-0.092-0.207,0.205,0.203-0.205v0.003v0.005v0.011v0.021v0.043v0.086v0.172
						l0,0.343v0.685c0,0.455,0,0.91,0,1.362c0,0.905,0,1.803-0.001,2.694c-0.001,1.782-0.002,3.535-0.003,5.252l-0.201-0.201
						c11.493,0.036,21.549,0.068,28.762,0.091c3.593,0.024,6.476,0.044,8.489,0.057c0.98,0.011,1.747,0.02,2.296,0.026
						c0.247,0.005,0.445,0.01,0.601,0.013C113.893,206.057,113.965,206.061,113.969,206.066c0.004,0.004-0.059,0.009-0.187,0.013
						c-0.149,0.003-0.339,0.008-0.576,0.013c-0.539,0.006-1.291,0.015-2.252,0.026c-2.003,0.014-4.87,0.033-8.443,0.057
						c-7.248,0.023-17.353,0.055-28.902,0.091l-0.201,0.001l0-0.202c-0.001-1.717-0.002-3.47-0.003-5.252
						c0-0.891-0.001-1.789-0.001-2.694c0-0.452,0-0.907,0-1.362l0-0.685v-0.343v-0.172v-0.086v-0.043v-0.021v-0.011v-0.005v-0.003
						c0.411-0.411,0.116-0.114,0.208-0.206c16.486,0.033,31.142,0.062,40.357,0.081l0.126,0l-0.001,0.125
						c-0.03,3.373-0.053,6.048-0.069,7.908c-0.013,0.886-0.023,1.577-0.03,2.073c-0.005,0.216-0.01,0.389-0.013,0.526
						C113.977,206.013,113.973,206.07,113.969,206.066z"/>
				</g>
			</g>
		</g>
	</g>
	<g>
		<g>
			<g>
				<rect x="478.992" y="356.057" style="fill:#E0E0E0;" width="40.36" height="10.677"/>
			</g>
		</g>
		<g>
			<g>
				<rect x="508.011" y="334.134" style="fill:#EBEBEB;" width="40.36" height="10.677"/>
			</g>
		</g>
		<g>
			<g>
				<g>
					<path style="fill:#E0E0E0;" d="M531.304,356.057c-0.004-0.004-0.008-0.07-0.013-0.194c-0.003-0.143-0.008-0.323-0.013-0.548
						c-0.007-0.502-0.017-1.203-0.03-2.101c-0.016-1.843-0.04-4.493-0.069-7.834l0.125,0.125
						c-9.215,0.018-23.871,0.048-40.357,0.081c0.091-0.092-0.207,0.205,0.203-0.205v0.003v0.005v0.011v0.021v0.043v0.086v0.172
						l0,0.343v0.685c0,0.456,0,0.91,0,1.362c0,0.905-0.001,1.803-0.001,2.694c-0.001,1.782-0.002,3.535-0.003,5.252l-0.201-0.201
						c11.493,0.036,21.549,0.068,28.762,0.091c3.593,0.024,6.476,0.044,8.489,0.057c0.979,0.011,1.747,0.02,2.296,0.026
						c0.247,0.005,0.445,0.01,0.6,0.013C531.228,356.048,531.3,356.052,531.304,356.057c0.004,0.004-0.059,0.009-0.187,0.013
						c-0.149,0.003-0.339,0.008-0.576,0.013c-0.539,0.006-1.291,0.015-2.252,0.026c-2.003,0.014-4.87,0.033-8.443,0.057
						c-7.248,0.023-17.353,0.055-28.902,0.091l-0.201,0.001l0-0.202c-0.001-1.717-0.002-3.47-0.003-5.252
						c0-0.891-0.001-1.789-0.001-2.694c0-0.452,0-0.907,0-1.362l0-0.685v-0.343v-0.172v-0.086v-0.043v-0.021v-0.011v-0.005v-0.003
						c0.411-0.412,0.116-0.114,0.208-0.206c16.486,0.033,31.142,0.062,40.357,0.081l0.126,0l-0.001,0.125
						c-0.029,3.373-0.053,6.048-0.069,7.909c-0.013,0.886-0.023,1.578-0.03,2.073c-0.005,0.216-0.01,0.389-0.013,0.526
						C531.313,356.004,531.309,356.061,531.304,356.057z"/>
				</g>
			</g>
		</g>
	</g>
	<g>
		<g>
			<g>
				<g>
					<path style="fill:#E0E0E0;" d="M207.59,295.466c-0.004-0.004-0.008-0.07-0.012-0.194c-0.003-0.143-0.008-0.323-0.013-0.548
						c-0.007-0.502-0.017-1.203-0.03-2.101c-0.016-1.843-0.04-4.493-0.069-7.834l0.125,0.125
						c-9.215,0.018-23.871,0.048-40.357,0.081c0.091-0.092-0.207,0.205,0.203-0.205v0.003v0.005v0.011v0.022v0.043v0.086v0.172
						v0.343v0.685c0,0.456,0,0.91,0,1.362c0,0.905-0.001,1.803-0.001,2.695c-0.001,1.782-0.002,3.535-0.003,5.252l-0.201-0.201
						c11.493,0.037,21.549,0.068,28.762,0.091c3.593,0.024,6.476,0.044,8.489,0.057c0.98,0.011,1.747,0.02,2.296,0.026
						c0.247,0.005,0.445,0.009,0.6,0.013C207.514,295.457,207.586,295.461,207.59,295.466c0.004,0.004-0.059,0.009-0.187,0.013
						c-0.149,0.003-0.339,0.008-0.576,0.013c-0.539,0.006-1.291,0.015-2.252,0.026c-2.003,0.014-4.87,0.033-8.443,0.057
						c-7.248,0.023-17.353,0.055-28.902,0.091l-0.201,0.001l0-0.202c-0.001-1.717-0.002-3.47-0.003-5.252
						c0-0.891-0.001-1.79-0.001-2.695c0-0.452,0-0.906,0-1.362v-0.685v-0.343v-0.172v-0.086v-0.043v-0.022v-0.011v-0.005v-0.003
						c0.411-0.411,0.115-0.114,0.208-0.206c16.486,0.033,31.142,0.062,40.357,0.081l0.126,0l-0.001,0.125
						c-0.03,3.373-0.053,6.048-0.069,7.909c-0.013,0.886-0.023,1.577-0.03,2.073c-0.005,0.216-0.01,0.389-0.013,0.526
						C207.599,295.413,207.595,295.47,207.59,295.466z"/>
				</g>
			</g>
		</g>
		<g>
			<g>
				<g>
					<path style="fill:#E0E0E0;" d="M213.063,284.788c-0.005-0.005-0.01-0.074-0.015-0.203c-0.004-0.153-0.01-0.339-0.016-0.566
						c-0.009-0.526-0.021-1.24-0.037-2.141c-0.019-1.872-0.046-4.516-0.08-7.767l0.148,0.148
						c-6.282,0.015-14.828,0.035-24.248,0.058c-0.185,0.184,0.248-0.251,0.204-0.205v0.003v0.006v0.011v0.022v0.044v0.088l0,0.175
						v0.35l0,0.698c0,0.464,0,0.926,0,1.385c-0.001,0.918-0.001,1.824-0.002,2.718c-0.002,1.786-0.005,3.518-0.007,5.177
						l-0.196-0.196c7,0.038,13.027,0.07,17.347,0.093c2.13,0.023,3.838,0.041,5.053,0.054c0.568,0.01,1.02,0.018,1.363,0.025
						C212.888,284.772,213.055,284.78,213.063,284.788c0.008,0.008-0.143,0.016-0.44,0.024c-0.333,0.006-0.771,0.014-1.322,0.025
						c-1.205,0.013-2.897,0.031-5.008,0.054c-4.352,0.023-10.425,0.055-17.479,0.093l-0.196,0.001l0-0.197
						c-0.002-1.659-0.005-3.391-0.007-5.177c-0.001-0.893-0.001-1.8-0.002-2.718c0-0.459,0-0.921-0.001-1.385l0-0.698v-0.35v-0.175
						v-0.088v-0.044v-0.022v-0.011v-0.006v-0.003c-0.045,0.043,0.39-0.391,0.207-0.207c9.419,0.022,17.966,0.043,24.248,0.058
						l0.149,0l-0.002,0.147c-0.033,3.289-0.06,5.963-0.079,7.857c-0.016,0.887-0.028,1.59-0.037,2.108
						C213.083,284.554,213.073,284.799,213.063,284.788z"/>
				</g>
			</g>
		</g>
	</g>
</g>
<g id="Background_Simple" style="display:none;">
	<g style="display:inline;opacity:0.4;">
		<g>
			<path style="fill:#FAFAFA;" d="M540.755,139.174c-22.188-22.552-56.17-32.79-87.123-26.248s-57.886,29.656-69.049,59.258
				c-6.565,17.409-8.4,37.454-20.859,51.273c-16.215,17.984-43.744,18.549-67.948,17.804c-24.203-0.745-51.751-0.109-67.887,17.946
				c-10.106,11.308-13.317,27.388-12.503,42.531c2.158,40.092,30.449,75.941,66.429,93.76s78.342,19.414,117.72,11.576
				c55.164-10.981,107.624-41.136,139.157-87.712c31.533-46.576,39.513-110.031,14.284-160.301"/>
		</g>
	</g>
	<g style="display:inline;">
		<path style="fill:#E0E0E0;" d="M225.68,473.79c-35.183,5.413-71.643-12.277-93.46-40.405
			c-21.817-28.129-30.061-65.185-27.763-100.708c1.826-28.216,10.784-57.353,31.602-76.487
			c33.293-30.6,84.389-26.877,128.123-38.369c30.768-8.085,59.272-24.611,81.576-47.295c17.201-17.495,30.791-38.55,49.749-54.124
			c45.168-37.104,120.34-49.831,172.851-24.153c33.232,16.251,45.49,31.858,59.263,52.632c19.294,29.101,21.115,65.52,15.541,99.988
			c-12.648,78.209-50.737,203.724-137.942,228.898"/>
	</g>
	<g style="display:inline;">
		<circle style="fill:#E0E0E0;" cx="159.054" cy="136.913" r="44.33"/>
	</g>
</g>
<g id="Floor">
	<g>
		<g>
			<path style="fill:#263238;" d="M700.829,470.768c0,0.144-148.459,0.26-331.55,0.26c-183.155,0-331.582-0.117-331.582-0.26
				s148.427-0.26,331.582-0.26C552.37,470.508,700.829,470.625,700.829,470.768z"/>
		</g>
	</g>
</g>
<g id="Character">
	<g>
		<g>
			<g>
				<g>
					<path style="fill:#E8505B;" d="M665.628,433.601l6.427,25.505l10.9,18.707c0.786,1.348,0.265,3.08-1.133,3.772l0,0
						c-0.783,0.387-1.698,0.376-2.467-0.039c-4.895-2.641-22.851-12.444-23.217-14.337c-0.424-2.192-8.565-26.453-8.565-26.453
						L665.628,433.601z"/>
				</g>
			</g>
			<g style="opacity:0.6;">
				<g>
					<path style="fill:#FFFFFF;" d="M681.822,481.585l-26.157-16.087l0.297,1.074c0.257,0.929,0.831,1.738,1.628,2.279
						c2.133,1.447,8.109,5.313,21.689,12.717C680.068,481.999,681.026,482.006,681.822,481.585L681.822,481.585z"/>
				</g>
			</g>
			<g style="opacity:0.6;">
				<g>
					<g>
						<path style="fill:#FFFFFF;" d="M658.606,455.882c0.757,0.264,1.23,1.167,0.998,1.934c-0.232,0.767-1.147,1.256-1.908,1.006
							c-0.761-0.25-1.362-1.317-1.046-2.053c0.317-0.736,1.422-1.252,2.1-0.826"/>
					</g>
				</g>
			</g>
			<g>
				<g>
					<g>
						<path style="fill:#263238;" d="M672.965,472.111c0.163,0.03,0.367-1.456,1.678-2.587c1.276-1.17,2.776-1.2,2.764-1.365
							c0.005-0.068-0.371-0.177-0.987-0.096c-0.612,0.076-1.446,0.396-2.161,1.03c-0.712,0.636-1.128,1.427-1.274,2.026
							C672.833,471.722,672.897,472.107,672.965,472.111z"/>
					</g>
				</g>
			</g>
			<g>
				<g>
					<g>
						<path style="fill:#263238;" d="M675.709,475.006c0.151,0.076,0.737-0.973,1.944-1.711c1.191-0.765,2.39-0.834,2.387-1.004
							c0.037-0.15-1.331-0.35-2.694,0.514C675.975,473.655,675.558,474.974,675.709,475.006z"/>
					</g>
				</g>
			</g>
			<g>
				<g>
					<g>
						<path style="fill:#263238;" d="M668.401,468.689c0.152,0.088,1.045-1.531,2.822-2.843c1.757-1.34,3.56-1.746,3.518-1.916
							c0.004-0.147-1.977,0.022-3.865,1.454C668.974,466.796,668.259,468.651,668.401,468.689z"/>
					</g>
				</g>
			</g>
			<g>
				<g>
					<g>
						<path style="fill:#263238;" d="M665.799,461.099c0.11,0.133,1.349-0.839,3.153-1.409c1.797-0.594,3.37-0.531,3.381-0.703
							c0.036-0.143-1.626-0.48-3.559,0.154C666.837,459.757,665.686,461.003,665.799,461.099z"/>
					</g>
				</g>
			</g>
			<g>
				<g>
					<g>
						<path style="fill:#263238;" d="M663.723,453.66c0.119,0.125,1.293-1.11,3.243-1.554c1.94-0.488,3.545,0.08,3.595-0.085
							c0.027-0.065-0.338-0.306-1.016-0.482c-0.673-0.178-1.666-0.243-2.714,0.006c-1.046,0.253-1.902,0.761-2.421,1.225
							C663.886,453.234,663.67,453.615,663.723,453.66z"/>
					</g>
				</g>
			</g>
			<g>
				<g>
					<g>
						<path style="fill:#263238;" d="M666.529,450.702c0.032-0.008-0.005-0.365-0.231-0.969c-0.226-0.598-0.654-1.453-1.456-2.301
							c-0.404-0.395-0.857-0.922-1.656-1.06c-0.398-0.071-0.905,0.139-1.113,0.558c-0.208,0.409-0.187,0.851-0.084,1.255
							c0.471,1.602,2.283,2.777,4.157,2.508c1.872-0.303,3.232-1.796,3.567-3.384c0.058-0.404,0.045-0.875-0.27-1.249
							c-0.313-0.379-0.876-0.408-1.222-0.246c-0.722,0.32-1.077,0.885-1.43,1.33c-0.68,0.944-1.016,1.832-1.186,2.448
							c-0.17,0.62-0.18,0.978-0.147,0.984c0.107,0.042,0.296-1.422,1.658-3.185c0.351-0.416,0.747-0.929,1.275-1.129
							c0.257-0.099,0.513-0.057,0.666,0.13c0.153,0.178,0.188,0.511,0.13,0.831c-0.294,1.305-1.54,2.667-3.127,2.898
							c-1.577,0.243-3.168-0.792-3.559-2.078c-0.09-0.311-0.094-0.647,0.022-0.879c0.114-0.228,0.35-0.347,0.609-0.317
							c0.548,0.062,1.026,0.504,1.419,0.872C666.135,449.287,666.424,450.759,666.529,450.702z"/>
					</g>
				</g>
			</g>
		</g>
		<g>
			<g>
				<g>
					<g>
						<g>
							<g>
								<path style="fill:#E8505B;" d="M579.713,437.628l1.419,21.427c0,0-21.326,7.077-21.449,11.063l41.668,0.302l-0.841-33.477
									L579.713,437.628z"/>
							</g>
						</g>
					</g>
				</g>
				<g style="opacity:0.6;">
					<g>
						<g>
							<g>
								<g>
									<path style="fill:#FFFFFF;" d="M593.955,456.861c0.813,0.196,1.397,1.085,1.235,1.905c-0.163,0.82-1.062,1.422-1.878,1.24
										c-0.816-0.182-1.55-1.228-1.297-2.024c0.253-0.797,1.348-1.446,2.096-1.074"/>
								</g>
							</g>
						</g>
					</g>
				</g>
				<g style="opacity:0.6;">
					<g>
						<g>
							<g>
								<path style="fill:#FFFFFF;" d="M601.351,470.419l-0.085-3.375l-40.245,1.111c0,0-1.339,0.578-1.551,2.263L601.351,470.419z"
									/>
							</g>
						</g>
					</g>
				</g>
				<g>
					<g>
						<g>
							<g>
								<g>
									<path style="fill:#263238;" d="M580.451,458.863c0.013,0.203,1.032,0.265,2.053,0.888c1.037,0.597,1.579,1.462,1.764,1.376
										c0.186-0.045-0.154-1.252-1.402-1.985C581.623,458.398,580.401,458.678,580.451,458.863z"/>
								</g>
							</g>
						</g>
					</g>
				</g>
				<g>
					<g>
						<g>
							<g>
								<g>
									<path style="fill:#263238;" d="M576.138,460.802c-0.041,0.198,0.85,0.518,1.567,1.357c0.742,0.818,0.944,1.743,1.146,1.728
										c0.192,0.026,0.297-1.169-0.614-2.195C577.335,460.657,576.136,460.608,576.138,460.802z"/>
								</g>
							</g>
						</g>
					</g>
				</g>
				<g>
					<g>
						<g>
							<g>
								<g>
									<path style="fill:#263238;" d="M573.815,466.105c0.186,0.038,0.438-0.987-0.118-2.085c-0.548-1.102-1.52-1.512-1.601-1.34
										c-0.11,0.171,0.526,0.75,0.968,1.658C573.529,465.236,573.613,466.091,573.815,466.105z"/>
								</g>
							</g>
						</g>
					</g>
				</g>
				<g>
					<g>
						<g>
							<g>
								<g>
									<path style="fill:#263238;" d="M580.669,453.944c0.091,0.183,1.015-0.126,2.167-0.083c1.152,0.02,2.059,0.379,2.159,0.201
										c0.113-0.151-0.783-0.877-2.14-0.909C581.5,453.112,580.565,453.788,580.669,453.944z"/>
								</g>
							</g>
						</g>
					</g>
				</g>
			</g>
			<g style="opacity:0.3;">
				<g>
					<g>
						<g>
							<polygon points="580,441.871 580.247,445.69 600.709,444.885 600.631,441.439 							"/>
						</g>
					</g>
				</g>
			</g>
			<g>
				<g>
					<g>
						<g>
							<g>
								<path style="fill:#263238;" d="M580.463,449.616c0,0.084,0.808,0.185,2.085-0.074c0.636-0.13,1.382-0.362,2.162-0.736
									c0.389-0.188,0.786-0.41,1.178-0.672c0.188-0.129,0.412-0.26,0.615-0.51c0.219-0.219,0.331-0.762,0.06-1.085
									c-0.223-0.313-0.604-0.44-0.905-0.438c-0.307-0.001-0.554,0.069-0.779,0.132c-0.46,0.127-0.89,0.294-1.283,0.484
									c-0.785,0.386-1.417,0.863-1.885,1.32c-0.939,0.924-1.246,1.694-1.175,1.731c0.094,0.064,0.545-0.587,1.506-1.355
									c0.479-0.382,1.094-0.781,1.828-1.104c0.368-0.16,0.765-0.299,1.186-0.406c0.438-0.129,0.813-0.144,0.932,0.049
									c0.043,0.074,0.05,0.103-0.039,0.235c-0.092,0.122-0.267,0.244-0.452,0.372c-0.361,0.251-0.726,0.471-1.083,0.663
									c-0.715,0.382-1.403,0.65-1.993,0.834C581.24,449.427,580.456,449.506,580.463,449.616z"/>
							</g>
						</g>
					</g>
				</g>
			</g>
			<g>
				<g>
					<g>
						<g>
							<g>
								<path style="fill:#263238;" d="M580.737,449.9c0.073,0.029,0.454-0.712,0.489-2.031c0.015-0.654-0.077-1.444-0.354-2.275
									c-0.141-0.414-0.328-0.837-0.57-1.25c-0.256-0.404-0.571-0.946-1.362-1.013c-0.412-0.003-0.745,0.329-0.853,0.608
									c-0.129,0.286-0.149,0.528-0.191,0.771c-0.062,0.489-0.038,0.966,0.041,1.405c0.158,0.882,0.543,1.609,0.956,2.127
									c0.847,1.055,1.703,1.272,1.718,1.203c0.065-0.104-0.656-0.475-1.31-1.493c-0.323-0.502-0.616-1.168-0.719-1.94
									c-0.053-0.384-0.059-0.794,0.002-1.206c0.052-0.445,0.207-0.807,0.374-0.766c0.207-0.01,0.569,0.313,0.75,0.661
									c0.225,0.367,0.407,0.744,0.551,1.115c0.284,0.745,0.419,1.462,0.467,2.069C580.819,449.104,580.625,449.872,580.737,449.9z
									"/>
							</g>
						</g>
					</g>
				</g>
			</g>
		</g>
		<g>
			<g>
				<g>
					<g>
						<g>
							<polygon style="fill:#263238;" points="579.606,250.807 643.094,250.329 673.773,451.828 647.425,455.172 613.656,289.492 
								603.549,455.762 603.523,456.256 575.027,455.759 							"/>
						</g>
					</g>
				</g>
			</g>
			<g>
				<g>
					<g>
						<path style="fill:#455A64;" d="M611.531,285.155c0.076-0.013-0.023-0.949-0.164-2.46c-0.142-1.51-0.309-3.598-0.38-5.908
							c-0.069-2.311-0.029-4.405,0.022-5.921c0.05-1.516,0.092-2.457,0.016-2.465c-0.068-0.007-0.24,0.922-0.386,2.442
							c-0.146,1.519-0.245,3.63-0.176,5.961c0.072,2.33,0.298,4.431,0.536,5.938C611.235,284.249,611.464,285.166,611.531,285.155z"
							/>
					</g>
				</g>
			</g>
			<g>
				<g>
					<g>
						<path style="fill:#455A64;" d="M606.301,268.979c0.009-0.026-0.112-0.116-0.375-0.142c-0.259-0.029-0.658,0.041-1.051,0.314
							c-0.377,0.271-0.782,0.765-0.794,1.453c-0.025,0.699,0.539,1.374,1.247,1.601c0.701,0.25,1.559,0.058,1.964-0.513
							c0.409-0.554,0.387-1.193,0.253-1.637c-0.147-0.456-0.421-0.754-0.644-0.888c-0.224-0.138-0.375-0.14-0.384-0.115
							c-0.05,0.072,0.51,0.299,0.669,1.095c0.072,0.376,0.032,0.879-0.272,1.243c-0.289,0.372-0.875,0.5-1.417,0.317
							c-0.542-0.183-0.929-0.641-0.932-1.112c-0.02-0.474,0.254-0.898,0.539-1.153C605.714,268.906,606.297,269.066,606.301,268.979
							z"/>
					</g>
				</g>
			</g>
			<g>
				<g>
					<g>
						<path style="fill:#455A64;" d="M622.559,264.925c-0.022,0.029,0.184,0.214,0.581,0.528c0.388,0.323,1.008,0.719,1.811,1.136
							c0.8,0.426,1.815,0.813,2.974,1.125c1.165,0.285,2.479,0.478,3.867,0.488c1.388-0.009,2.703-0.201,3.869-0.486
							c1.16-0.311,2.175-0.697,2.975-1.123c0.803-0.416,1.423-0.812,1.812-1.134c0.396-0.313,0.603-0.499,0.581-0.527
							c-0.058-0.081-0.942,0.598-2.553,1.327c-0.801,0.372-1.799,0.711-2.93,0.988c-1.137,0.25-2.41,0.421-3.754,0.43
							c-1.344-0.01-2.616-0.183-3.753-0.433c-1.13-0.277-2.128-0.616-2.929-0.99C623.501,265.523,622.618,264.844,622.559,264.925z"
							/>
					</g>
				</g>
			</g>
			<g>
				<g>
					<g>
						<path style="fill:#455A64;" d="M583.26,269.188c-0.013,0.059,0.64,0.273,1.74,0.367c1.097,0.097,2.646,0.022,4.275-0.44
							c1.628-0.468,2.984-1.222,3.864-1.883c0.885-0.661,1.326-1.187,1.284-1.231c-0.099-0.137-2.122,1.73-5.292,2.61
							C585.977,269.537,583.272,269.019,583.26,269.188z"/>
					</g>
				</g>
			</g>
			<g>
				<g>
					<g>
						<path style="fill:#455A64;" d="M663.723,453.66c0.005-0.011-0.092-0.129-0.184-0.428c-0.094-0.296-0.217-0.742-0.358-1.332
							c-0.285-1.181-0.66-2.934-1.116-5.197c-0.909-4.527-2.143-11.096-3.621-19.221c-2.958-16.25-6.904-38.725-11.25-63.55
							c-4.368-24.82-8.321-47.286-11.188-63.574c-1.466-8.11-2.654-14.681-3.48-19.25c-0.422-2.251-0.752-4.008-0.981-5.227
							c-0.115-0.579-0.204-1.029-0.269-1.357c-0.064-0.305-0.109-0.459-0.109-0.459s0.01,0.16,0.057,0.469
							c0.053,0.33,0.125,0.784,0.217,1.366c0.206,1.224,0.503,2.986,0.884,5.245c0.787,4.576,1.919,11.156,3.316,19.278
							c2.828,16.295,6.728,38.771,11.036,63.6c4.346,24.825,8.349,47.292,11.402,63.527c1.525,8.118,2.814,14.678,3.786,19.195
							C662.823,451.257,663.53,453.744,663.723,453.66z"/>
					</g>
				</g>
			</g>
			<g>
				<g>
					<g>
						<path style="fill:#455A64;" d="M582.808,451.389c0,0,0.018-0.158,0.027-0.465c0.006-0.33,0.015-0.783,0.026-1.364
							c0.011-1.224,0.028-2.986,0.049-5.244c0.01-2.277,0.029-5.063,0.086-8.297c0.052-3.234,0.077-6.917,0.187-10.986
							c0.159-8.14,0.47-17.83,0.939-28.584c0.5-10.752,1.174-22.568,2.092-34.955c0.941-12.39,2.037-24.177,3.148-34.885
							c1.142-10.705,2.279-20.333,3.337-28.406c0.498-4.04,1.023-7.686,1.454-10.891c0.426-3.206,0.824-5.963,1.153-8.216
							c0.316-2.235,0.563-3.98,0.734-5.192c0.076-0.576,0.135-1.025,0.178-1.352c0.037-0.305,0.043-0.464,0.043-0.464
							s-0.041,0.153-0.096,0.455c-0.056,0.326-0.132,0.772-0.229,1.345c-0.194,1.209-0.473,2.949-0.831,5.178
							c-0.361,2.249-0.788,5.002-1.242,8.205c-0.459,3.202-1.01,6.845-1.532,10.883c-1.105,8.069-2.282,17.697-3.45,28.404
							c-1.138,10.71-2.249,22.501-3.191,34.897c-0.918,12.393-1.578,24.215-2.052,34.973c-0.442,10.759-0.716,20.454-0.827,28.598
							c-0.086,4.071-0.086,7.755-0.109,10.99c-0.029,3.235-0.018,6.022,0.004,8.299c0.021,2.258,0.038,4.02,0.049,5.245
							c0.011,0.581,0.02,1.034,0.026,1.364C582.79,451.232,582.808,451.389,582.808,451.389z"/>
					</g>
				</g>
			</g>
		</g>
		<g>
			<g>
				<path style="fill:#FFBE9D;" d="M517.169,173.137l39.672,11.58l22.221-13.121l16.862,20.002l-31.453,13.619
					c-4.492,1.945-9.619,1.775-13.973-0.463l-38.971-20.038L517.169,173.137z"/>
			</g>
			<g>
				<g>
					<g>
						<path style="fill:#FAFAFA;" d="M508.12,169.316l-4.913-2.55l-13.663-7.109c-1.113-0.442-2.15,0.754-1.576,1.806l8.712,7.161
							l-3.645,1.39c-0.723,0.276-1.316,0.812-1.664,1.503l-1.936,3.852c0,0-2.211,0.237-2.434,1.674
							c-0.236,1.524,1.437,1.933,1.437,1.933l-0.417,1.679c-0.195,0.786-0.048,1.617,0.403,2.289l0,0
							c2.116,0.87,3.797-3.562,3.797-3.562l2.253,0.236l2.465,4.969c3.128,0.758,1.646-4.174,1.646-4.174s0,0,1.38,0.343
							c1.38,0.343,2.105,1.321,4.252,2.422c2.147,1.101,6.366,1.488,6.366,1.488l3.118,2.302l9.462-12.947L508.12,169.316z"/>
					</g>
					<g>
						<g>
							<path style="fill:#263238;" d="M508.12,169.316c0.003-0.008,0.094,0.012,0.269,0.059c0.2,0.056,0.455,0.128,0.774,0.217
								c0.711,0.211,1.706,0.506,2.978,0.884c2.621,0.801,6.379,1.948,11.073,3.382l0.231,0.07l-0.143,0.197
								c-2.645,3.645-5.842,8.051-9.418,12.979l-0.134,0.184l-0.185-0.136c-0.973-0.715-2.037-1.497-3.122-2.295l0.118,0.045
								c-2.006-0.233-4.101-0.511-6.159-1.364c-1.008-0.46-1.935-1.089-2.842-1.715c-0.454-0.31-0.913-0.587-1.412-0.75
								c-0.506-0.144-1.082-0.273-1.625-0.412l0.305-0.32c0.24,0.895,0.421,1.827,0.338,2.837c-0.058,0.489-0.197,1.066-0.679,1.443
								c-0.496,0.374-1.106,0.314-1.609,0.219l-0.114-0.022l-0.057-0.115c-0.784-1.58-1.62-3.264-2.466-4.968l0.206,0.143
								c-0.623-0.065-1.295-0.136-1.97-0.207l-0.282-0.03l0.271-0.167c-0.326,0.801-0.709,1.554-1.204,2.257
								c-0.493,0.673-1.108,1.41-2.089,1.567l-0.364,0.006c-0.118-0.017-0.233-0.055-0.349-0.084l-0.087-0.024l-0.043-0.012
								l-0.003-0.001c0.024,0.021-0.222-0.181-0.118-0.096l-0.003-0.004l-0.006-0.009l-0.011-0.018l-0.088-0.142
								c-0.056-0.096-0.107-0.195-0.152-0.297c-0.181-0.405-0.273-0.848-0.271-1.289c-0.005-0.451,0.129-0.872,0.219-1.248
								l0.29-1.166l0.188,0.311c-0.535-0.158-1.015-0.433-1.352-0.907c-0.331-0.487-0.371-1.095-0.193-1.63
								c0.206-0.549,0.665-0.914,1.122-1.14c0.469-0.226,0.944-0.361,1.454-0.429l-0.198,0.137c0.412-0.817,0.82-1.626,1.224-2.426
								c0.202-0.4,0.402-0.798,0.602-1.194c0.183-0.396,0.454-0.833,0.798-1.147c0.339-0.326,0.759-0.576,1.187-0.729
								c0.405-0.154,0.807-0.306,1.207-0.458c0.8-0.303,1.589-0.603,2.368-0.898l-0.065,0.402c-3.12-2.578-6.028-4.981-8.693-7.184
								l-0.029-0.024l-0.021-0.036c-0.316-0.553-0.209-1.288,0.21-1.718c0.399-0.455,1.09-0.593,1.619-0.367l0.013,0.006
								l0.005,0.003c5.685,2.999,10.306,5.436,13.54,7.142c1.571,0.841,2.804,1.5,3.676,1.967c0.397,0.219,0.712,0.393,0.952,0.526
								C508.016,169.24,508.124,169.307,508.12,169.316c-0.004,0.009-0.119-0.04-0.34-0.144c-0.246-0.12-0.569-0.277-0.976-0.475
								c-0.885-0.445-2.136-1.075-3.73-1.877c-3.253-1.669-7.901-4.055-13.619-6.989l0.018,0.008
								c-0.402-0.163-0.882-0.061-1.179,0.275c-0.306,0.325-0.379,0.842-0.145,1.251l-0.05-0.06c2.677,2.188,5.597,4.576,8.73,7.138
								l0.314,0.256l-0.379,0.145c-0.778,0.298-1.567,0.601-2.365,0.907c-0.399,0.153-0.801,0.307-1.205,0.462
								c-0.387,0.14-0.729,0.349-1.022,0.63c-0.301,0.284-0.506,0.608-0.695,1.014c-0.198,0.396-0.398,0.795-0.599,1.195
								c-0.402,0.801-0.807,1.611-1.217,2.429l-0.059,0.117l-0.14,0.021c-0.845,0.125-1.862,0.478-2.151,1.242
								c-0.123,0.379-0.096,0.84,0.137,1.167c0.227,0.334,0.648,0.58,1.053,0.697l0.248,0.072l-0.059,0.24l-0.289,1.167
								c-0.097,0.403-0.21,0.762-0.202,1.127c-0.002,0.368,0.076,0.738,0.227,1.076c0.038,0.085,0.08,0.167,0.127,0.247l0.073,0.118
								l0.009,0.015l0.005,0.007l0.002,0.004c0.104,0.086-0.141-0.115-0.115-0.094l0.002,0.001l0.031,0.007l0.061,0.015
								c0.082,0.018,0.162,0.048,0.245,0.062l0.25-0.005c0.683-0.094,1.271-0.712,1.724-1.353c0.46-0.651,0.837-1.393,1.141-2.141
								l0.076-0.187l0.195,0.02l0.282,0.03c0.675,0.071,1.347,0.142,1.97,0.207l0.143,0.015l0.064,0.128
								c0.845,1.705,1.68,3.39,2.463,4.97l-0.171-0.136c0.434,0.082,0.883,0.105,1.176-0.126c0.296-0.222,0.432-0.654,0.48-1.087
								c0.078-0.883-0.092-1.808-0.314-2.636l-0.115-0.429l0.42,0.109c0.557,0.144,1.084,0.26,1.658,0.425
								c0.571,0.188,1.077,0.5,1.536,0.814c0.914,0.635,1.809,1.242,2.765,1.682c1.933,0.813,4.041,1.112,5.999,1.344l0.069,0.008
								l0.05,0.037c1.082,0.803,2.142,1.589,3.113,2.309l-0.318,0.049c3.609-4.904,6.836-9.288,9.506-12.915l0.088,0.267
								c-4.679-1.499-8.425-2.699-11.038-3.536c-1.259-0.414-2.244-0.738-2.947-0.97c-0.312-0.108-0.561-0.194-0.757-0.262
								C508.202,169.359,508.117,169.324,508.12,169.316z"/>
						</g>
					</g>
				</g>
				<g>
					<g>
						<path style="fill:#263238;" d="M498.914,180.496c-0.013,0.058-1.092-0.137-2.94-0.411c-1.848-0.275-4.47-0.609-7.556-0.867
							l0.049-0.001c-1.208,0.106-2.055-1.298-1.59-2.389c0.422-1.092,1.569-1.673,2.635-1.85c1.173-0.189,2.258-0.246,3.322-0.438
							c1.059-0.172,2.072-0.385,3.027-0.626c0.956-0.242,1.854-0.51,2.685-0.791c0.408-0.133,0.785-0.297,1.049-0.539
							c0.268-0.236,0.34-0.563,0.214-0.853c-0.127-0.296-0.382-0.535-0.625-0.77c-0.236-0.237-0.461-0.464-0.676-0.68
							c-0.415-0.428-0.776-0.786-1.089-1.06c-0.625-0.548-1.03-0.78-1.007-0.818c0.012-0.024,0.456,0.149,1.136,0.661
							c0.339,0.255,0.729,0.6,1.164,1.009c0.222,0.205,0.455,0.421,0.699,0.646c0.245,0.224,0.548,0.469,0.736,0.864
							c0.21,0.395,0.086,0.983-0.273,1.29c-0.336,0.324-0.763,0.507-1.185,0.657c-0.835,0.302-1.741,0.59-2.707,0.848
							c-0.966,0.257-1.992,0.484-3.065,0.665c-1.064,0.199-2.219,0.27-3.307,0.446c-0.993,0.161-1.927,0.682-2.254,1.519
							c-0.371,0.785,0.324,1.816,1.056,1.725l0.025-0.003l0.025,0.003c3.095,0.297,5.721,0.698,7.562,1.058
							c0.921,0.179,1.647,0.342,2.14,0.468C498.657,180.385,498.919,180.47,498.914,180.496z"/>
					</g>
				</g>
				<g>
					<g>
						<path style="fill:#263238;" d="M498.545,173.492c0.024,0.138-1.143,0.432-2.611,0.351c-0.516-0.026-0.993-0.096-1.388-0.178
							l0.24-0.143c-0.293,0.678-0.536,1.109-0.623,1.078c-0.088-0.032,0.001-0.518,0.208-1.227l0.046-0.157l0.194,0.014
							c0.526,0.037,0.934,0.066,1.351,0.095C497.37,173.402,498.524,173.345,498.545,173.492z"/>
					</g>
				</g>
			</g>
		</g>
		<g>
			<g>
				<polygon style="fill:#E8505B;" points="588.108,157.072 562.547,176.68 580.469,200.281 602.325,187.874 				"/>
			</g>
			<g>
				<path style="fill:#E8505B;" d="M588.108,157.072L588.108,157.072c3.699-2.277,16.496-5.083,16.496-5.083l24.737-2.689
					l21.455,9.852l-8.818,36.933l7.721,69.627l-73.652,4.012L588.108,157.072z"/>
			</g>
			<g>
				<rect x="617.468" y="187.964" style="fill:#FAFAFA;" width="12.686" height="3.422"/>
				<path style="fill:#263238;" d="M630.179,191.411h-12.736v-3.472h12.736V191.411z M617.494,191.362h12.635v-3.372h-12.635
					V191.362z"/>
			</g>
			<g>
				<g>
					<path style="fill:#263238;" d="M585.028,178.444c-0.144,0.003-0.307-2.536-0.363-5.67c-0.057-3.135,0.013-5.677,0.157-5.68
						c0.144-0.003,0.306,2.536,0.363,5.67C585.242,175.898,585.172,178.441,585.028,178.444z"/>
				</g>
			</g>
		</g>
		<g>
			<path style="fill:#E8505B;" d="M632.95,241.911"/>
		</g>
		<g>
			<g>
				<g>
					<g>
						<g>
							<g>
								<g>
									<g>
										<g>
											<g>
												<g>
													<g>
														<g>
															<g>
																<g>
																	<g>
																		<g>
																			<g>
																				<g>
																					<g>
																						<path style="fill:#FFBE9D;" d="M631.43,115.412l-2.707,38.346c-0.442,6.261-5.65,11.114-11.926,11.114l0,0
																							c-6.91,0-12.384-5.843-11.93-12.738c0.24-3.65,0.457-6.639,0.457-6.639s-9.283-1.443-9.398-10.725
																							c-0.066-5.361,0.859-17.526,1.651-26.845c0.536-6.3,5.81-11.137,12.133-11.137h5.607
																							C624.974,97.353,632.261,105.775,631.43,115.412z"/>
																					</g>
																				</g>
																			</g>
																		</g>
																	</g>
																</g>
															</g>
														</g>
													</g>
												</g>
												<g>
													<g>
														<g>
															<g>
																<g>
																	<g>
																		<g>
																			<g>
																				<g>
																					<g>
																						<path style="fill:#EB996E;" d="M605.309,145.362c0,0,5.866,0.477,12.1-3.439c0,0-2.86,6.68-12.122,5.844
																							L605.309,145.362z"/>
																					</g>
																				</g>
																			</g>
																		</g>
																	</g>
																</g>
															</g>
														</g>
													</g>
												</g>
											</g>
										</g>
									</g>
									<g>
										<g>
											<g>
												<g>
													<g>
														<g>
															<g>
																<g>
																	<g>
																		<g>
																			<g>
																				<g>
																					<g>
																						<g>
																							<g>
																								<g>
																									<path style="fill:#263238;" d="M599.467,119.655c-0.025,0.7,0.548,1.298,1.278,1.337
																										c0.729,0.039,1.341-0.495,1.366-1.195c0.025-0.7-0.547-1.299-1.277-1.338
																										C600.104,118.42,599.492,118.955,599.467,119.655z"/>
																								</g>
																							</g>
																						</g>
																					</g>
																				</g>
																			</g>
																		</g>
																	</g>
																</g>
															</g>
															<g>
																<g>
																	<g>
																		<g>
																			<g>
																				<g>
																					<g>
																						<g>
																							<g>
																								<g>
																									<g>
																										<path style="fill:#263238;" d="M599.178,117.233c0.164,0.173,1.168-0.57,2.595-0.566
																											c1.425-0.017,2.471,0.717,2.626,0.542c0.076-0.077-0.091-0.389-0.547-0.721
																											c-0.449-0.33-1.214-0.652-2.102-0.648c-0.888,0.005-1.636,0.332-2.065,0.667
																											C599.245,116.843,599.097,117.156,599.178,117.233z"/>
																									</g>
																								</g>
																							</g>
																						</g>
																					</g>
																				</g>
																			</g>
																		</g>
																	</g>
																</g>
															</g>
														</g>
														<g>
															<g>
																<g>
																	<g>
																		<g>
																			<g>
																				<g>
																					<g>
																						<g>
																							<g>
																								<g>
																									<path style="fill:#263238;" d="M613.178,119.655c-0.025,0.7,0.548,1.298,1.278,1.337
																										c0.729,0.039,1.341-0.495,1.366-1.195c0.025-0.7-0.548-1.299-1.277-1.338
																										C613.815,118.42,613.202,118.955,613.178,119.655z"/>
																								</g>
																							</g>
																						</g>
																					</g>
																				</g>
																			</g>
																		</g>
																	</g>
																</g>
															</g>
															<g>
																<g>
																	<g>
																		<g>
																			<g>
																				<g>
																					<g>
																						<g>
																							<g>
																								<g>
																									<g>
																										<path style="fill:#263238;" d="M613.198,117.499c0.165,0.173,1.17-0.57,2.595-0.566
																											c1.424-0.017,2.471,0.717,2.626,0.542c0.076-0.077-0.09-0.389-0.548-0.721
																											c-0.449-0.331-1.214-0.652-2.102-0.648c-0.889,0.005-1.636,0.332-2.066,0.667
																											C613.267,117.109,613.117,117.422,613.198,117.499z"/>
																									</g>
																								</g>
																							</g>
																						</g>
																					</g>
																				</g>
																			</g>
																		</g>
																	</g>
																</g>
															</g>
														</g>
														<g>
															<g>
																<g>
																	<g>
																		<g>
																			<g>
																				<g>
																					<g>
																						<g>
																							<g>
																								<g>
																									<path style="fill:#263238;" d="M608.154,127.724c0.007-0.081-0.88-0.234-2.317-0.418
																										c-0.364-0.038-0.709-0.11-0.77-0.359c-0.086-0.263,0.067-0.656,0.243-1.079
																										c0.343-0.881,0.701-1.805,1.077-2.773c1.496-3.949,2.578-7.196,2.419-7.255
																										c-0.16-0.059-1.502,3.094-2.997,7.043c-0.36,0.974-0.704,1.902-1.032,2.79
																										c-0.138,0.414-0.375,0.883-0.189,1.429c0.098,0.272,0.365,0.47,0.599,0.533
																										c0.233,0.071,0.438,0.075,0.618,0.086C607.252,127.799,608.149,127.806,608.154,127.724z"/>
																								</g>
																							</g>
																						</g>
																					</g>
																				</g>
																			</g>
																		</g>
																	</g>
																</g>
															</g>
														</g>
													</g>
												</g>
											</g>
											<g>
												<g>
													<g>
														<g>
															<g>
																<g>
																	<g>
																		<g>
																			<g>
																				<g>
																					<path style="fill:#263238;" d="M612.829,112.552c0.141,0.388,1.565,0.204,3.238,0.406
																						c1.678,0.168,3.027,0.658,3.249,0.31c0.099-0.166-0.136-0.531-0.682-0.907
																						c-0.541-0.375-1.404-0.731-2.408-0.843c-1.005-0.11-1.924,0.05-2.534,0.298
																						C613.078,112.063,612.769,112.368,612.829,112.552z"/>
																				</g>
																			</g>
																		</g>
																	</g>
																</g>
															</g>
														</g>
													</g>
												</g>
											</g>
											<g>
												<g>
													<g>
														<g>
															<g>
																<g>
																	<g>
																		<g>
																			<g>
																				<g>
																					<path style="fill:#263238;" d="M599.193,114.434c0.251,0.324,1.233-0.012,2.415-0.028
																						c1.181-0.057,2.182,0.218,2.412-0.121c0.101-0.164-0.056-0.489-0.494-0.796
																						c-0.431-0.306-1.151-0.555-1.963-0.531c-0.812,0.026-1.516,0.319-1.926,0.651
																						C599.22,113.942,599.082,114.276,599.193,114.434z"/>
																				</g>
																			</g>
																		</g>
																	</g>
																</g>
															</g>
														</g>
													</g>
												</g>
											</g>
										</g>
									</g>
									<g>
										<g>
											<g>
												<g>
													<g>
														<g>
															<g>
																<g>
																	<g>
																		<g>
																			<g>
																				<path style="fill:#FFBE9D;" d="M628.301,122.379c0.158-0.069,6.377-1.886,6.175,4.459
																					c-0.203,6.345-6.531,4.833-6.537,4.651C627.934,131.307,628.301,122.379,628.301,122.379z"/>
																			</g>
																		</g>
																	</g>
																</g>
															</g>
														</g>
													</g>
												</g>
											</g>
										</g>
										<g>
											<g>
												<g>
													<g>
														<g>
															<g>
																<g>
																	<g>
																		<g>
																			<g>
																				<g>
																					<path style="fill:#EB996E;" d="M629.954,129.147c0.029-0.019,0.108,0.081,0.292,0.173
																						c0.179,0.089,0.491,0.157,0.826,0.043c0.678-0.225,1.277-1.271,1.344-2.413
																						c0.035-0.577-0.069-1.131-0.259-1.593c-0.179-0.471-0.469-0.804-0.804-0.875
																						c-0.333-0.089-0.579,0.106-0.662,0.282c-0.091,0.175-0.054,0.303-0.088,0.313
																						c-0.018,0.015-0.133-0.111-0.073-0.371c0.03-0.125,0.109-0.272,0.262-0.39
																						c0.156-0.119,0.382-0.175,0.617-0.142c0.488,0.049,0.914,0.514,1.123,1.021
																						c0.236,0.51,0.365,1.133,0.327,1.781c-0.082,1.277-0.774,2.453-1.7,2.689c-0.45,0.102-0.818-0.044-1.006-0.2
																						C629.961,129.301,629.932,129.158,629.954,129.147z"/>
																				</g>
																			</g>
																		</g>
																	</g>
																</g>
															</g>
														</g>
													</g>
												</g>
											</g>
										</g>
									</g>
								</g>
							</g>
							<g>
								<g>
									<g>
										<g>
											<g>
												<g>
													<path style="fill:#263238;" d="M631.831,122.164c-0.968-0.234-2.642,0.659-3.055,1.565
														c-0.413,0.906-0.504,1.933-0.915,2.84c-0.411,0.907-1.341,1.727-2.31,1.497c-0.668-0.158-1.146-0.784-1.322-1.448
														c-0.176-0.664-0.105-1.365-0.019-2.047c0.374-2.964,0.997-5.902,1.116-8.887c0.119-2.984-0.306-6.085-1.873-8.628
														c-1.567-2.543-4.446-4.412-7.423-4.173c-1.972,0.159-3.781,1.187-5.74,1.462c-2.323,0.325-4.779-0.494-6.441-2.15
														c-0.213-0.212-1.204-0.865-1.204-0.865c0-0.154,0.145-1.479,0.668-1.962c3.887-3.595,10.891-4.598,16.025-3.306
														c5.134,1.292,9.947,4.917,12.156,9.728C633.704,110.603,633.048,117.295,631.831,122.164"/>
												</g>
											</g>
										</g>
									</g>
								</g>
							</g>
						</g>
					</g>
					<g>
						<g>
							<g>
								<path style="fill:#E8505B;" d="M597.475,106.493c0,0,24.35-7.834,34.883,13.233c0,0,1.574-5.272,1.574-8.098
									c0-1.887-1.129-13.128-12.695-16.664C621.237,94.963,603.812,88.313,597.475,106.493z"/>
							</g>
						</g>
					</g>
					<g>
						<g>
							<g>
								<path style="fill:#263238;" d="M618.397,107.019c-0.86,1.39-2.396,2.34-4.024,2.488c-1.628,0.148-3.31-0.509-4.407-1.721
									c-0.481,1.2-1.771,2.024-3.062,1.957c-1.291-0.068-2.488-1.022-2.841-2.266c-0.707,0.686-1.443,1.391-2.369,1.73
									c-0.925,0.339-2.098,0.211-2.705-0.565c-0.619-0.79-0.439-1.994,0.168-2.793c0.607-0.799,1.542-1.275,2.468-1.662
									c2.892-1.208,6.082-1.814,9.188-1.393c3.106,0.421,6.115,1.927,8.056,4.387"/>
							</g>
						</g>
					</g>
					<g style="opacity:0.4;">
						<g>
							<g>
								<path d="M597.475,106.493c0,0,2.771-3.296,7.743-3.516c7.182-0.317,20.627,3.721,27.14,16.749c0,0,1.574-5.272,1.574-8.098
									c0-1.887-1.129-13.128-12.695-16.664C621.237,94.963,603.812,88.313,597.475,106.493z"/>
							</g>
						</g>
					</g>
					<g>
						<g>
							<path style="fill:#E8505B;" d="M631.341,117.259c-3.611-5.524-8.589-10.091-14.186-13.588
								c-5.597-3.497-14.853-6.955-21.231-8.648c-1.915-0.508-3.911-0.953-5.864-0.615c-1.952,0.337-3.863,1.637-4.348,3.558
								c-0.607,2.405,3.661,6.116,5.667,7.575c2.006,1.459,6.097,3.6,6.097,3.6s-0.055-4.46,7.084-5.38
								C614.269,102.51,631.341,117.259,631.341,117.259z"/>
						</g>
					</g>
				</g>
				<g>
					<path style="fill:#E0E0E0;" d="M611.371,99.064c0,0-3.509-1.941-7.032-2.393c0.724-0.53,1.11-0.785,1.911-1.147
						c1.803,0.358,3.63,0.816,5.48,1.843L611.371,99.064z"/>
				</g>
			</g>
			<g>
				<g>
					<g>
						<path style="fill:#EBEBEB;" d="M629.948,122.601c0.018,0.065-0.5,0.374-1.314,0.987c-1.018,0.745-2.058,1.506-3.197,2.339
							c-2.506,1.822-4.574,3.252-4.662,3.137c-0.086-0.114,1.844-1.731,4.356-3.558C627.622,123.664,629.842,122.39,629.948,122.601
							z"/>
					</g>
				</g>
				<g>
					<g>
						<path style="fill:#EBEBEB;" d="M630.599,131.856c0.109,0.071-1.32,2.21-3.726,4.239c-2.394,2.043-4.736,3.105-4.789,2.986
							c-0.076-0.138,2.11-1.383,4.452-3.383C628.891,133.713,630.476,131.758,630.599,131.856z"/>
					</g>
				</g>
				<g>
					<g>
						<path style="fill:#FAFAFA;" d="M595.701,128.786c0,0,2.512,0.717,3.172,0.681c4.595-0.248,6.211-1.8,13.717-0.198
							c1.211,0.258,2.461,0.292,3.686,0.114c1.098-0.16,2.657-0.319,4.498-0.319l1.445,10.029c0,0-8.907,7.791-16.932,6.918
							C594.915,144.881,593.687,132.778,595.701,128.786z"/>
					</g>
					<g>
						<g>
							<path style="fill:#263238;" d="M595.701,128.786c0,0-0.093,0.264-0.273,0.733c-0.154,0.482-0.327,1.219-0.43,2.183
								c-0.148,1.909-0.032,4.827,1.449,7.976c0.761,1.545,1.913,3.118,3.574,4.288c1.648,1.184,3.788,1.864,6.06,1.982
								c2.28,0.088,4.676-0.44,6.976-1.387c2.31-0.935,4.57-2.215,6.734-3.735c0.816-0.582,1.614-1.18,2.359-1.812l-0.034,0.093
								c-0.505-3.516-0.989-6.888-1.44-10.029l0.097,0.084c-1.85-0.019-3.605,0.194-5.307,0.399c-0.857,0.058-1.7,0.009-2.505-0.132
								c-0.804-0.147-1.565-0.329-2.324-0.44c-1.508-0.25-2.944-0.378-4.277-0.356c-1.334,0.012-2.554,0.212-3.657,0.396
								c-1.102,0.192-2.097,0.347-2.972,0.422c-0.437,0.018-0.843,0.094-1.223,0.032c-0.372-0.054-0.703-0.13-1-0.199
								C596.324,128.997,595.701,128.786,595.701,128.786c-0.005-0.168,2.545,1.286,6.982,0.123
								c1.102-0.192,2.329-0.401,3.674-0.421c1.344-0.03,2.791,0.092,4.307,0.337c0.759,0.107,1.536,0.289,2.327,0.431
								c0.792,0.136,1.621,0.181,2.463,0.122c1.675-0.207,3.467-0.428,5.32-0.412l0.085,0.001l0.012,0.083
								c0.454,3.141,0.943,6.512,1.451,10.027l0.008,0.057l-0.043,0.036c-0.755,0.642-1.554,1.24-2.376,1.826
								c-2.175,1.527-4.449,2.814-6.779,3.754c-2.318,0.951-4.743,1.484-7.06,1.389c-2.307-0.125-4.479-0.822-6.152-2.033
								c-1.685-1.197-2.846-2.799-3.607-4.365c-1.48-3.192-1.57-6.129-1.397-8.048c0.116-0.97,0.302-1.705,0.472-2.192
								C595.593,129.021,595.701,128.786,595.701,128.786z"/>
						</g>
					</g>
				</g>
				<g>
					<path style="fill:#E0E0E0;" d="M596.536,134.636c6.909,3.442,15.495,3.284,22.273-0.411c-1.386,1.636-2.824,3.315-4.735,4.287
						c-2.194,1.116-4.757,1.174-7.219,1.17c-1.961-0.003-3.999-0.048-5.756-0.92c-1.803-0.895-3.088-2.55-4.309-4.15"/>
				</g>
				<g>
					<g>
						<path style="fill:#E0E0E0;" d="M617.749,132.107c0.015,0.062-1.072,0.399-2.875,0.758c-1.801,0.36-4.325,0.709-7.131,0.811
							c-2.807,0.097-5.35-0.073-7.172-0.305c-1.824-0.231-2.931-0.49-2.921-0.553c0.012-0.079,1.138,0.051,2.957,0.187
							c1.819,0.137,4.338,0.247,7.117,0.151c2.779-0.1,5.283-0.388,7.088-0.653C616.618,132.238,617.731,132.029,617.749,132.107z"
							/>
					</g>
				</g>
				<g>
					<g>
						<path style="fill:#E0E0E0;" d="M619.472,136.279c0.043,0.037-0.611,0.901-1.966,1.995c-1.343,1.093-3.448,2.363-6.024,3.075
							c-2.576,0.714-5.034,0.708-6.748,0.461c-1.725-0.242-2.729-0.647-2.711-0.701c0.022-0.084,1.054,0.191,2.752,0.334
							c1.691,0.149,4.072,0.096,6.569-0.597c2.497-0.69,4.566-1.869,5.94-2.866C618.667,136.985,619.41,136.218,619.472,136.279z"/>
					</g>
				</g>
				<g>
					<g>
						<path style="fill:#263238;" d="M619.627,133.974c0.017,0.032-0.268,0.212-0.801,0.513c-0.528,0.31-1.331,0.689-2.351,1.089
							c-1.018,0.408-2.273,0.785-3.691,1.094c-1.423,0.285-3.012,0.488-4.689,0.523c-1.678,0.018-3.273-0.135-4.704-0.374
							c-1.428-0.264-2.694-0.6-3.724-0.976c-1.032-0.368-1.847-0.721-2.384-1.014c-0.542-0.284-0.832-0.456-0.816-0.488
							c0.041-0.087,1.251,0.514,3.315,1.152c1.03,0.326,2.283,0.619,3.688,0.853c1.409,0.209,2.973,0.344,4.617,0.327
							c1.644-0.035,3.202-0.22,4.604-0.473c1.397-0.278,2.641-0.611,3.659-0.969C618.393,134.528,619.583,133.889,619.627,133.974z"
							/>
					</g>
				</g>
				<g>
					<g>
						<path style="fill:#263238;" d="M612.174,133.986c0.021,0.131-2.638,0.59-5.947,0.448c-3.311-0.128-5.922-0.801-5.891-0.93
							c0.029-0.152,2.651,0.284,5.912,0.41C609.509,134.054,612.158,133.833,612.174,133.986z"/>
					</g>
				</g>
			</g>
		</g>
		<g>
			<g>
				<g>
					<polygon style="fill:#E8505B;" points="501.748,258.66 501.748,177.569 614.544,177.569 614.544,258.66 554.764,259.164 					
						"/>
				</g>
				<g style="opacity:0.4;">
					<rect x="501.748" y="177.569" width="112.795" height="81.091"/>
				</g>
				<g>
					<polygon style="fill:#E8505B;" points="554.764,259.164 501.748,258.66 501.748,177.569 554.59,177.569 					"/>
				</g>
			</g>
			<g>
				<rect x="523.296" y="177.569" style="fill:#263238;" width="7.034" height="14.068"/>
			</g>
			<g>
				<rect x="505.511" y="240.764" style="fill:#FAFAFA;" width="14.001" height="14.001"/>
				<path style="fill:#263238;" d="M519.537,254.79h-14.052v-14.051h14.052V254.79z M505.536,254.74h13.95v-13.951h-13.95V254.74z"
					/>
			</g>
		</g>
		<g>
			<g>
				<g>
					<path style="fill:#FFBE9D;" d="M640.942,196.185l2.332,18.875l-34.997,20.773l5.44,11.972l39.778-16.07
						c4.825-2.443,8.949-6.065,8.608-11.489l-1.917-26.402L640.942,196.185z"/>
				</g>
				<g>
					<path style="fill:#E8505B;" d="M650.796,159.151c0,0,4.979,3.688,6.387,11.368c1.341,7.313,5.892,27.747,5.892,27.747
						l-23.983,2.839c0,0,0.016-5.611,0.014-5.615c-0.04-0.08-2.233-10.537-2.233-10.537l4.471-14.434L650.796,159.151z"/>
				</g>
				<g>
					<g>
						<path style="fill:#263238;" d="M662.123,198.356c0.004,0.036-0.579,0.14-1.639,0.298c-1.149,0.159-2.663,0.367-4.491,0.62
							c-3.795,0.501-9.042,1.156-14.841,1.849c-0.695,0.083-1.382,0.164-2.029,0.241l-0.269,0.032l-0.02-0.271
							c-0.399-5.35-0.841-10.107-1.167-13.524c-0.157-1.642-0.287-2.997-0.386-4.032c-0.088-0.948-0.12-1.471-0.087-1.476
							c0.033-0.004,0.13,0.511,0.277,1.453c0.145,0.942,0.333,2.312,0.544,4.017c0.419,3.411,0.922,8.164,1.335,13.525l-0.289-0.239
							c0.647-0.078,1.334-0.16,2.029-0.243c5.799-0.692,11.053-1.29,14.859-1.697c1.837-0.185,3.357-0.339,4.511-0.455
							C661.527,198.357,662.119,198.32,662.123,198.356z"/>
					</g>
				</g>
				<g>
					<g>
						<path style="fill:#263238;" d="M648.834,160.467c0.034,0.083-0.871,0.458-2.202,1.276c-1.331,0.812-3.055,2.137-4.594,3.951
							c-1.532,1.821-2.55,3.742-3.129,5.19c-0.584,1.449-0.802,2.403-0.89,2.384c-0.053-0.008,0.038-0.997,0.545-2.513
							c0.501-1.511,1.499-3.523,3.076-5.397c1.584-1.867,3.401-3.187,4.807-3.933C647.857,160.67,648.817,160.416,648.834,160.467z"
							/>
					</g>
				</g>
			</g>
			<g>
				<g>
					<g>
						<path style="fill:#FAFAFA;" d="M607.733,234.777l-5.14,2.355l-2.205-0.852l-11.216-0.701l-7.024,1.553l-0.201,0.401
							c0,3.808,7.216,2.305,9.421,2.906c2.205,0.601,0.2,5.311,0.2,5.311s-9.922,12.928-11.65,16.035
							c-0.864,1.553-0.583,2.405-0.085,2.869c0.51,0.475,1.306,0.472,1.875,0.069l3.663-2.593c0,0,10.077,0.586,10.769,0.244
							c0.997-0.493,2.443-2.593,2.443-2.593c5.157-4.823,10.46-8.834,15.959-11.772L607.733,234.777z"/>
					</g>
					<g>
						<g>
							<path style="fill:#263238;" d="M607.733,234.777c0.003-0.008,0.045,0.063,0.126,0.207c0.093,0.17,0.211,0.386,0.358,0.655
								c0.329,0.618,0.788,1.479,1.374,2.578c1.213,2.308,2.947,5.609,5.104,9.716l0.078,0.148l-0.149,0.08
								c-4.803,2.58-10.319,6.552-15.879,11.793l0.033-0.038c-0.669,0.908-1.323,1.843-2.346,2.572
								c-0.124,0.091-0.309,0.152-0.502,0.183l-0.455,0.036l-0.892,0.019c-0.595,0.005-1.192-0.007-1.794-0.021
								c-2.408-0.06-4.89-0.179-7.431-0.318l0.162-0.046c-0.785,0.557-1.578,1.118-2.377,1.685l-1.204,0.853
								c-0.424,0.336-1.057,0.502-1.622,0.336c-0.578-0.156-1.03-0.654-1.162-1.229c-0.128-0.578,0.008-1.139,0.203-1.628
								c0.414-0.992,1.027-1.798,1.588-2.659c3.485-5.023,7.068-9.695,10.424-14.098l-0.031,0.054
								c0.274-0.677,0.504-1.386,0.654-2.089c0.14-0.697,0.246-1.432,0.074-2.059c-0.072-0.322-0.264-0.556-0.498-0.717
								c-0.25-0.13-0.593-0.196-0.935-0.222c-0.686-0.066-1.391-0.06-2.086-0.064c-1.39-0.006-2.771-0.01-4.109-0.287
								c-0.656-0.168-1.338-0.353-1.878-0.828c-0.553-0.462-0.812-1.179-0.83-1.854l-0.001-0.049l0.024-0.048
								c0.071-0.14,0.136-0.27,0.201-0.4l0.046-0.092l0.099-0.022c2.517-0.547,4.855-1.056,7.029-1.528l0.027-0.006l0.026,0.002
								c4.479,0.305,8.24,0.561,11.211,0.763l0.021,0.001l0.018,0.007c0.863,0.342,1.557,0.616,2.198,0.869l-0.084,0.003
								c1.668-0.736,2.964-1.307,3.876-1.709c0.411-0.177,0.736-0.316,0.984-0.422C607.627,234.811,607.736,234.768,607.733,234.777
								c-0.003,0.009-0.119,0.07-0.341,0.18c-0.248,0.121-0.572,0.279-0.984,0.479c-0.887,0.422-2.147,1.022-3.769,1.795
								l-0.04,0.019l-0.044-0.017c-0.644-0.243-1.343-0.507-2.211-0.834l0.038,0.008c-2.974-0.17-6.738-0.384-11.219-0.639
								l0.053-0.004c-2.171,0.488-4.505,1.012-7.019,1.577l0.145-0.113c-0.065,0.13-0.129,0.261-0.199,0.401l0.023-0.096
								c0.028,0.581,0.231,1.137,0.685,1.518c0.443,0.394,1.073,0.57,1.688,0.723c1.267,0.256,2.626,0.259,4.015,0.258
								c0.696,0.002,1.402-0.009,2.132,0.058c0.363,0.032,0.74,0.08,1.132,0.282c0.362,0.229,0.633,0.608,0.721,1.001
								c0.209,0.786,0.081,1.553-0.06,2.294c-0.158,0.744-0.387,1.462-0.677,2.182l-0.011,0.027l-0.021,0.028
								c-3.34,4.405-6.921,9.089-10.388,14.087c-0.554,0.844-1.174,1.68-1.536,2.558c-0.179,0.438-0.274,0.908-0.181,1.317
								c0.092,0.401,0.407,0.746,0.797,0.85c0.399,0.11,0.833,0.015,1.183-0.26l1.205-0.852c0.8-0.565,1.593-1.126,2.379-1.681
								l0.073-0.052l0.089,0.005c2.534,0.143,5.016,0.267,7.413,0.334c0.599,0.015,1.194,0.029,1.78,0.026l0.871-0.015l0.417-0.031
								c0.096-0.018,0.192-0.029,0.307-0.112c0.877-0.613,1.58-1.563,2.215-2.428l0.018-0.024l0.016-0.015
								c5.605-5.241,11.181-9.202,16.039-11.75l-0.071,0.228c-2.069-4.105-3.732-7.404-4.895-9.712
								c-0.561-1.129-1.001-2.014-1.316-2.649c-0.139-0.287-0.25-0.516-0.339-0.698C607.768,234.871,607.73,234.785,607.733,234.777
								z"/>
						</g>
					</g>
				</g>
				<g>
					<g>
						<path style="fill:#263238;" d="M594.87,253.406c0.089,0.106-2.021,2.071-4.633,4.488c-1.309,1.206-2.503,2.288-3.381,3.057
							c-0.878,0.77-1.44,1.224-1.482,1.181c-0.117-0.116,1.889-2.204,4.511-4.621C592.501,255.089,594.775,253.292,594.87,253.406z"
							/>
					</g>
				</g>
				<g>
					<g>
						<path style="fill:#263238;" d="M597.921,255.907c0.12,0.094-1.123,1.742-2.913,3.52c-1.776,1.79-3.35,3.099-3.447,2.994
							c-0.099-0.106,1.31-1.579,3.077-3.361C596.419,257.291,597.814,255.823,597.921,255.907z"/>
					</g>
				</g>
			</g>
		</g>
	</g>
</g>
<g id="Plant">
	<g>
		<g>
			<g>
				<g>
					<g>
						<path style="fill:#E8505B;" d="M126.362,447.847c0.839-3.252-1.293-6.517-3.683-8.876c-2.39-2.359-5.248-4.473-6.491-7.593
							c-2.015-5.054,0.694-11.598-2.744-15.815c-2.022-2.481-5.649-3.311-7.444-5.961c-0.941-1.39-1.246-3.098-1.616-4.736
							c-1.887-8.353-6.068-16.176-11.963-22.386c-0.41,7.438,1.231,14.979,4.694,21.575c1.392,2.651,3.102,5.236,3.563,8.195
							c0.749,4.805-1.933,9.755-0.752,14.472c1.35,5.395,7.41,9.006,7.698,14.561c0.243,4.695-3.849,8.817-3.544,13.509
							c0.13,1.998,1.057,3.853,2.089,5.568c3.631,6.036,8.964,10.193,17.048,10.058l9.901,0.347L126.362,447.847z"/>
					</g>
				</g>
			</g>
		</g>
		<g style="opacity:0.3;">
			<g>
				<g>
					<g>
						<g>
							<path d="M126.362,447.847c0.839-3.252-1.293-6.517-3.683-8.876c-2.39-2.359-5.248-4.473-6.491-7.593
								c-2.015-5.054,0.694-11.598-2.744-15.815c-2.022-2.481-5.649-3.311-7.444-5.961c-0.941-1.39-1.246-3.098-1.616-4.736
								c-1.887-8.353-6.068-16.176-11.963-22.386c-0.41,7.438,1.231,14.979,4.694,21.575c1.392,2.651,3.102,5.236,3.563,8.195
								c0.749,4.805-1.933,9.755-0.752,14.472c1.35,5.395,7.41,9.006,7.698,14.561c0.243,4.695-3.849,8.817-3.544,13.509
								c0.13,1.998,1.057,3.853,2.089,5.568c3.631,6.036,8.964,10.193,17.048,10.058l9.901,0.347L126.362,447.847z"/>
						</g>
					</g>
				</g>
			</g>
		</g>
		<g>
			<g>
				<g>
					<g>
						<g>
							<g>
								<g>
									<path style="fill:#263238;" d="M135.122,471.024c0,0,0.944,0.22,2.726-0.059c0.887-0.13,1.98-0.365,3.217-0.81
										c1.23-0.45,2.632-1.092,3.974-2.177c0.644-0.564,1.288-1.258,1.634-2.178c0.341-0.917,0.403-1.924,0.466-2.958
										c0.053-1.035,0.054-2.113,0.231-3.203c0.167-1.09,0.595-2.162,1.21-3.184c1.168-2.051,3.106-3.992,3.732-6.777
										c0.678-2.739,0.192-5.703-0.269-8.679c-0.46-2.97-0.905-6.208,0.231-9.302c1.062-3.097,3.234-5.892,4.319-9.383
										c1.081-3.526,0.577-7.318,0.805-11.059c0.105-1.879,0.467-3.758,1.29-5.498c0.801-1.753,1.912-3.406,2.78-5.251
										c1.757-3.73,2.068-7.958,2.548-12.101c0.234-2.087,0.471-4.197,0.71-6.327c0.236-2.141,0.426-4.272,1.1-6.332
										c0.61-2.075,1.493-4.083,2.369-6.128c0.428-1.029,0.882-2.058,1.149-3.2c0.194-1.167,0.25-2.259,0.319-3.405
										c0.111-2.27,0.018-4.571-0.264-6.854c-0.269-2.285-0.681-4.55-0.927-6.84c-0.015-0.135-0.031-0.271-0.044-0.395
										l-0.051-0.456l-0.406,0.203c-2.12,1.062-3.936,2.643-5.33,4.498c-1.418,1.843-2.451,3.922-3.275,6.035
										c-1.654,4.254-2.25,8.712-3.083,12.966c-0.814,4.254-1.887,8.439-4.068,11.975c-1.085,1.763-2.398,3.373-3.547,5.093
										c-1.146,1.708-2.154,3.584-2.457,5.643c-0.586,4.189,1.722,7.868,1.241,11.576c-0.171,1.843-0.905,3.566-1.806,5.139
										c-0.899,1.582-1.956,3.049-2.958,4.524c-1.002,1.474-1.956,2.97-2.658,4.568c-0.714,1.593-1.108,3.297-1.216,4.964
										c-0.242,3.339,0.232,6.507-0.012,9.497c-0.201,2.995-1.253,5.711-2.443,8.138c-1.198,2.436-2.53,4.639-3.646,6.775
										c-0.562,1.067-1.079,2.109-1.501,3.155c-0.447,1.044-0.666,2.114-0.869,3.13c-0.325,2.053-0.293,3.966-0.073,5.652
										c0.43,3.392,1.695,5.834,2.833,7.207c0.26,0.367,0.563,0.626,0.801,0.868c0.232,0.25,0.462,0.419,0.65,0.552
										C134.924,470.899,135.122,471.024,135.122,471.024c0.044-0.05-0.815-0.505-1.917-1.896c-1.09-1.38-2.3-3.805-2.688-7.159
										c-0.199-1.667-0.211-3.555,0.126-5.57c0.209-0.996,0.432-2.044,0.876-3.057c0.421-1.022,0.945-2.058,1.51-3.114
										c1.125-2.117,2.471-4.311,3.695-6.763c1.214-2.439,2.307-5.208,2.529-8.281c0.26-3.054-0.2-6.233,0.053-9.493
										c0.114-1.631,0.497-3.256,1.193-4.797c0.686-1.547,1.626-3.014,2.628-4.477c1.002-1.465,2.071-2.937,2.996-4.552
										c0.925-1.604,1.702-3.398,1.889-5.349c0.477-3.951-1.813-7.654-1.218-11.547c0.286-1.926,1.244-3.721,2.374-5.398
										c1.131-1.688,2.45-3.3,3.568-5.108c2.25-3.637,3.34-7.903,4.163-12.174c0.842-4.281,1.438-8.692,3.063-12.858
										c0.809-2.071,1.819-4.098,3.189-5.876c1.349-1.793,3.086-3.3,5.106-4.313l-0.456-0.253
										c0.014,0.126,0.029,0.263,0.045,0.399c0.249,2.317,0.662,4.587,0.928,6.845c0.278,2.258,0.371,4.513,0.262,6.749
										c-0.064,1.104-0.132,2.262-0.304,3.303c-0.242,1.042-0.686,2.069-1.111,3.087c-0.869,2.037-1.765,4.075-2.387,6.195
										c-0.688,2.11-0.885,4.323-1.115,6.437c-0.236,2.132-0.471,4.243-0.702,6.332c-0.473,4.161-0.783,8.32-2.476,11.921
										c-0.836,1.793-1.946,3.451-2.77,5.26c-0.851,1.806-1.228,3.791-1.327,5.701c-0.216,3.821,0.281,7.556-0.752,10.941
										c-1.026,3.369-3.186,6.179-4.278,9.374c-1.168,3.228-0.684,6.572-0.212,9.532c0.478,2.981,0.959,5.883,0.32,8.515
										c-0.572,2.66-2.455,4.583-3.646,6.693c-0.62,1.047-1.065,2.18-1.228,3.311c-0.173,1.128-0.164,2.215-0.208,3.242
										c-0.051,1.02-0.11,2.02-0.422,2.878c-0.311,0.855-0.917,1.531-1.536,2.084c-1.293,1.069-2.669,1.725-3.878,2.187
										c-1.218,0.458-2.296,0.712-3.172,0.861c-0.877,0.159-1.558,0.182-2.014,0.195
										C135.358,471.016,135.122,471.024,135.122,471.024z"/>
								</g>
							</g>
						</g>
					</g>
				</g>
				<g>
					<g>
						<g>
							<g>
								<g>
									<path style="fill:#263238;" d="M166.407,354.376c-0.011-0.002-0.043,0.099-0.096,0.299c-0.058,0.237-0.13,0.53-0.219,0.891
										c-0.194,0.78-0.427,1.957-0.801,3.428c-0.389,1.466-1.287,3.126-2.055,5.172c-0.798,2.029-1.608,4.381-2.354,7.023
										c-0.755,2.64-1.425,5.573-2.124,8.714c-0.722,3.135-1.442,6.498-3.17,9.67c-0.812,1.608-1.725,3.236-2.451,5.017
										c-0.744,1.781-1.145,3.728-1.426,5.682c-0.476,3.922-1.195,7.905-2.135,11.979c-1.985,8.114-3.876,15.842-5.598,22.88
										c-1.764,7.013-3.353,13.332-4.692,18.66c-1.303,5.279-2.363,9.568-3.11,12.593c-0.344,1.452-0.616,2.598-0.814,3.432
										c-0.079,0.363-0.144,0.658-0.196,0.896c-0.041,0.203-0.056,0.308-0.046,0.311c0.011,0.003,0.048-0.097,0.109-0.295
										c0.069-0.234,0.153-0.524,0.258-0.881c0.226-0.827,0.537-1.963,0.93-3.402c0.794-3.013,1.92-7.285,3.306-12.543
										c1.377-5.318,3.011-11.626,4.824-18.626c1.738-7.039,3.647-14.769,5.651-22.885c0.939-4.069,1.667-8.125,2.131-12.028
										c0.275-1.941,0.658-3.817,1.372-5.544c0.7-1.735,1.599-3.355,2.411-4.981c1.742-3.232,2.467-6.696,3.161-9.819
										c0.678-3.149,1.319-6.073,2.042-8.708c0.714-2.637,1.489-4.985,2.252-7.016c0.728-2.039,1.598-3.718,1.962-5.234
										c0.343-1.507,0.532-2.672,0.687-3.467c0.063-0.367,0.115-0.664,0.157-0.904
										C166.407,354.484,166.418,354.379,166.407,354.376z"/>
								</g>
							</g>
						</g>
					</g>
				</g>
			</g>
			<g>
				<g>
					<g>
						<g>
							<g>
								<path style="fill:#E8505B;" d="M136.869,471.055c6.467-3.844,8.323-15.513,5.626-22.536
									c-2.698-7.023-7.42-13.44-8.148-20.929c-0.56-5.756,1.325-11.664-0.015-17.291c-1.809-7.593-9.222-13.474-9.137-21.279
									c0.048-4.379,2.539-8.5,2.341-12.875c-0.243-5.366-4.362-9.624-6.913-14.351c-3.905-7.236-4.162-15.791-5.497-23.904
									c-1.335-8.113-4.427-16.802-11.618-20.789c-1.062,6.888-2.875,11.605-2.305,20.937c0.204,3.351,4.098,9.767,4.627,17.111
									c0.317,4.39,0.536,8.786,0.804,13.179c0.261,4.275,0.538,8.628,2.07,12.627c1.174,3.065,3.061,5.849,3.933,9.013
									c1.64,5.953-0.515,12.4,0.81,18.432c1.122,5.11,4.659,9.507,5.381,14.688c1.015,7.28-3.696,14.844-1.285,21.788
									c1.197,3.446,4.031,6.212,4.835,9.77c0.624,2.761-0.056,5.683,0.509,8.456c0.91,4.468,9.432,7.938,13.983,7.662"/>
							</g>
						</g>
					</g>
				</g>
				<g>
					<g>
						<g>
							<g>
								<g>
									<path style="fill:#263238;" d="M105.29,323.938c-0.011,0.002-0.001,0.134,0.028,0.389c0.037,0.289,0.085,0.663,0.146,1.132
										c0.148,0.995,0.315,2.456,0.651,4.344c0.362,1.9,1.34,4.038,2.122,6.616c0.825,2.57,1.646,5.536,2.372,8.856
										c0.738,3.318,1.355,6.991,2.004,10.944c0.67,3.923,1.355,8.259,3.315,12.374c0.907,2.068,1.925,4.137,2.689,6.341
										c0.783,2.197,1.143,4.559,1.364,6.989c0.334,4.879,0.984,9.953,1.897,15.066c1.981,10.206,3.868,19.927,5.585,28.775
										c1.81,8.813,3.441,16.753,4.814,23.438c1.386,6.636,2.511,12.019,3.299,15.79c0.396,1.829,0.707,3.265,0.929,4.287
										c0.107,0.461,0.192,0.827,0.257,1.111c0.061,0.25,0.098,0.377,0.109,0.374c0.011-0.002-0.005-0.133-0.045-0.387
										c-0.05-0.287-0.115-0.658-0.195-1.124c-0.193-1.027-0.465-2.471-0.812-4.31c-0.74-3.78-1.798-9.178-3.101-15.83
										c-1.335-6.692-2.92-14.641-4.68-23.465c-1.701-8.846-3.57-18.564-5.532-28.766c-0.912-5.118-1.558-10.118-1.903-15.017
										c-0.226-2.443-0.601-4.877-1.41-7.128c-0.787-2.252-1.819-4.329-2.727-6.379c-1.949-4.054-2.634-8.288-3.332-12.226
										c-0.67-3.946-1.316-7.629-2.085-10.954c-0.757-3.327-1.612-6.298-2.473-8.868c-0.822-2.587-1.83-4.707-2.218-6.558
										c-0.368-1.854-0.578-3.33-0.767-4.312c-0.086-0.465-0.155-0.835-0.208-1.122
										C105.332,324.065,105.301,323.936,105.29,323.938z"/>
								</g>
							</g>
						</g>
					</g>
				</g>
			</g>
		</g>
	</g>
</g>
<g id="Doorbell">
	<g>
		<g>
			<rect x="442.69" y="139.309" style="fill:#455A64;" width="32.143" height="45.051"/>
		</g>
		<g>
			<rect x="442.69" y="139.309" style="fill:#263238;" width="32.143" height="5.222"/>
		</g>
		<g>
			<rect x="442.69" y="179.139" style="fill:#263238;" width="32.143" height="5.222"/>
		</g>
		<g>
			<rect x="448.961" y="147.743" style="fill:#263238;" width="19.528" height="10.177"/>
		</g>
		<g>
			<g>
				<path style="fill:#455A64;" d="M463.348,152.832c-0.05,0.002-0.045-0.408-0.242-1.095c-0.194-0.674-0.663-1.655-1.681-2.404
					c-0.984-0.751-2.592-1.166-4.143-0.583c-1.538,0.535-2.862,2.172-2.845,4.081c-0.018,1.91,1.307,3.547,2.845,4.082
					c1.551,0.583,3.16,0.169,4.143-0.583c1.018-0.749,1.487-1.73,1.681-2.404C463.302,153.24,463.297,152.83,463.348,152.832
					c0.018,0,0.03,0.101,0.038,0.296c0.011,0.194-0.007,0.484-0.083,0.849c-0.142,0.718-0.582,1.795-1.654,2.647
					c-1.035,0.853-2.796,1.363-4.53,0.741c-1.719-0.566-3.223-2.391-3.202-4.533c-0.02-2.141,1.484-3.966,3.202-4.532
					c1.734-0.621,3.495-0.112,4.53,0.741c1.072,0.852,1.513,1.929,1.654,2.647c0.076,0.364,0.094,0.654,0.083,0.849
					C463.378,152.731,463.366,152.832,463.348,152.832z"/>
			</g>
		</g>
		<g>
			<path style="fill:#263238;" d="M451.21,161.835c0,0.419-0.339,0.758-0.758,0.758s-0.758-0.339-0.758-0.758
				c0-0.419,0.339-0.758,0.758-0.758S451.21,161.416,451.21,161.835z"/>
		</g>
		<g>
			<path style="fill:#263238;" d="M456.942,161.835c0,0.419-0.339,0.758-0.758,0.758c-0.419,0-0.758-0.339-0.758-0.758
				c0-0.419,0.339-0.758,0.758-0.758C456.603,161.077,456.942,161.416,456.942,161.835z"/>
		</g>
		<g>
			<path style="fill:#263238;" d="M462.675,161.835c0,0.419-0.339,0.758-0.758,0.758s-0.758-0.339-0.758-0.758
				c0-0.419,0.339-0.758,0.758-0.758S462.675,161.416,462.675,161.835z"/>
		</g>
		<g>
			<circle style="fill:#263238;" cx="450.452" cy="166.693" r="0.758"/>
		</g>
		<g>
			<path style="fill:#263238;" d="M456.942,166.693c0,0.419-0.339,0.758-0.758,0.758c-0.419,0-0.758-0.339-0.758-0.758
				s0.339-0.758,0.758-0.758C456.603,165.935,456.942,166.274,456.942,166.693z"/>
		</g>
		<g>
			<circle style="fill:#263238;" cx="461.917" cy="166.693" r="0.758"/>
		</g>
		<g>
			<circle style="fill:#263238;" cx="450.452" cy="171.551" r="0.758"/>
		</g>
		<g>
			<path style="fill:#263238;" d="M456.942,171.551c0,0.419-0.339,0.758-0.758,0.758c-0.419,0-0.758-0.339-0.758-0.758
				c0-0.419,0.339-0.758,0.758-0.758C456.603,170.793,456.942,171.132,456.942,171.551z"/>
		</g>
		<g>
			<circle style="fill:#263238;" cx="461.917" cy="171.551" r="0.758"/>
		</g>
		<g>
			<circle style="fill:#E8505B;" cx="467.88" cy="166.693" r="2.747"/>
		</g>
	</g>
</g>
<g id="Door">
	<g>
		<g>
			<rect x="410.372" y="38.024" style="fill:#263238;" width="18.603" height="432.744"/>
		</g>
		<g>
			<g>
				<rect x="225.161" y="56.281" style="fill:#455A64;" width="185.211" height="414.487"/>
			</g>
			<g>
				<rect x="213.212" y="38.024" style="fill:#263238;" width="17.139" height="432.744"/>
			</g>
			<g>
				<rect x="213.212" y="38.024" style="fill:#263238;" width="215.763" height="18.257"/>
			</g>
			<g>
				<g>
					<path style="fill:#455A64;" d="M428.975,38.024c0.023,0.028-0.227,0.283-0.695,0.725c-0.562,0.514-1.231,1.127-2.011,1.84
						c-1.807,1.634-4.113,3.721-6.664,6.028c-2.587,2.37-4.895,4.552-6.477,6.21c-0.791,0.828-1.4,1.527-1.77,2.041
						c-0.189,0.256-0.302,0.469-0.38,0.616c-0.046,0.15-0.082,0.237-0.1,0.237c-0.018,0-0.019-0.088,0-0.27
						c0.049-0.167,0.141-0.412,0.309-0.692c0.33-0.567,0.906-1.312,1.669-2.18c1.527-1.738,3.804-3.97,6.397-6.345
						c2.592-2.374,5.005-4.449,6.775-5.923c0.885-0.736,1.611-1.322,2.12-1.716C428.658,38.2,428.952,37.997,428.975,38.024z"/>
				</g>
			</g>
			<g>
				<g>
					<path style="fill:#455A64;" d="M230.351,56.656c-0.106,0.097-4.029-3.995-8.761-9.139c-4.734-5.146-8.484-9.395-8.378-9.493
						c0.106-0.097,4.028,3.994,8.762,9.14C226.706,52.309,230.457,56.559,230.351,56.656z"/>
				</g>
			</g>
			<g>
				<g>
					<path style="fill:#263238;" d="M241.71,300.236h-0.531c-3.295,0-5.966-2.671-5.966-5.966v-43.424
						c0-3.295,2.671-5.966,5.966-5.966h0.531c3.295,0,5.966,2.671,5.966,5.966v43.424
						C247.676,297.565,245.005,300.236,241.71,300.236z"/>
				</g>
				<g>
					<path style="fill:#455A64;" d="M243.975,286.643c0-1.16-0.94-2.1-2.1-2.1c-1.16,0-2.1,0.94-2.1,2.1
						c0,0.819,0.474,1.521,1.157,1.867v2.439c0,0.521,0.422,0.943,0.943,0.943l0,0c0.521,0,0.943-0.422,0.943-0.943v-2.439
						C243.502,288.163,243.975,287.461,243.975,286.643z"/>
				</g>
				<g>
					<path style="fill:#263238;" d="M272.42,270.145h-27.971c-1.75,0-3.169-1.419-3.169-3.169v-0.282
						c0-1.75,1.419-3.169,3.169-3.169h27.971c1.75,0,3.169,1.419,3.169,3.169v0.282C275.589,268.726,274.17,270.145,272.42,270.145z
						"/>
				</g>
				<g>
					<g>
						<path style="fill:#455A64;" d="M253.745,270.334c-0.001,0.039-0.373,0.056-1.042,0.087c-0.786,0.034-1.732,0.075-2.839,0.123
							c-1.2,0.035-2.644,0.068-4.243-0.145c-0.791-0.116-1.64-0.258-2.472-0.624c-0.819-0.358-1.63-0.941-2.119-1.816
							c-0.473-0.875-0.543-1.936-0.134-2.809c0.196-0.43,0.553-0.811,0.947-1.026c0.386-0.227,0.781-0.37,1.167-0.499
							c1.558-0.518,3.044-0.482,4.234-0.5c1.206,0.006,2.176,0.06,2.846,0.1c0.67,0.043,1.041,0.081,1.04,0.117
							c0.001,0.085-1.491,0.088-3.88,0.151c-1.193,0.065-2.624,0.07-4.089,0.587c-0.728,0.259-1.5,0.564-1.804,1.288
							c-0.326,0.697-0.27,1.61,0.129,2.34c0.41,0.737,1.121,1.267,1.87,1.6c0.75,0.34,1.562,0.489,2.333,0.615
							c1.547,0.234,2.973,0.241,4.169,0.252C252.257,270.164,253.75,270.255,253.745,270.334z"/>
					</g>
				</g>
			</g>
			<g>
				<g>
					<g>
						<path style="fill:#263238;" d="M312.664,149.086c0,0-0.009-0.116-0.013-0.331c-0.003-0.231-0.008-0.545-0.013-0.952
							c-0.006-0.853-0.016-2.084-0.028-3.681c-0.014-3.225-0.035-7.917-0.062-13.859c-0.028-11.89-0.069-28.783-0.116-48.874
							l0.232,0.232c-16.329,0.008-35.091,0.018-54.956,0.028h-0.006l0.26-0.26c-0.016,25.045-0.031,48.332-0.043,67.697
							l-0.217-0.217c16.533,0.047,30.245,0.085,39.843,0.112c4.795,0.024,8.561,0.043,11.149,0.056
							c1.277,0.011,2.26,0.019,2.945,0.025C312.307,149.07,312.664,149.086,312.664,149.086s-0.325,0.016-0.979,0.024
							c-0.675,0.006-1.645,0.014-2.904,0.025c-2.576,0.013-6.326,0.032-11.1,0.056c-9.631,0.027-23.39,0.066-39.98,0.112
							l-0.217,0.001l0-0.218c-0.012-19.365-0.027-42.652-0.043-67.697l0-0.26h0.261h0.006c19.865,0.01,38.627,0.02,54.956,0.028
							l0.233,0l-0.001,0.233c-0.048,20.153-0.088,37.098-0.117,49.024c-0.026,5.92-0.047,10.594-0.062,13.807
							c-0.012,1.577-0.021,2.792-0.028,3.635c-0.006,0.396-0.01,0.702-0.013,0.927C312.673,148.987,312.668,149.09,312.664,149.086z
							"/>
					</g>
				</g>
				<g>
					<g>
						<path style="fill:#263238;" d="M303.615,140.707c-0.005-0.005-0.009-0.092-0.014-0.258c-0.003-0.186-0.008-0.426-0.014-0.734
							c-0.007-0.665-0.016-1.61-0.028-2.827c-0.015-2.483-0.036-6.073-0.063-10.607c-0.029-9.088-0.069-21.957-0.117-37.185
							l0.236,0.236c-11.4,0.007-24.279,0.016-37.866,0.024c-0.064,0.055,0.49-0.487,0.256-0.25v0.014v0.028v0.057v0.113v0.226v0.451
							v0.9l0,1.794c0,1.193,0,2.38-0.001,3.56c-0.001,2.361-0.002,4.695-0.002,7c-0.003,4.61-0.006,9.1-0.009,13.442
							c-0.013,8.681-0.025,16.765-0.035,24.016l-0.212-0.212c11.436,0.046,20.873,0.084,27.479,0.111
							c3.29,0.023,5.873,0.042,7.66,0.054c0.868,0.01,1.542,0.018,2.023,0.024C303.367,140.692,303.615,140.707,303.615,140.707
							s-0.218,0.015-0.663,0.023c-0.472,0.006-1.132,0.014-1.983,0.024c-1.776,0.013-4.343,0.031-7.613,0.054
							c-6.638,0.027-16.121,0.065-27.612,0.111l-0.212,0.001l0-0.213c-0.011-7.25-0.022-15.335-0.035-24.016
							c-0.003-4.342-0.006-8.832-0.009-13.442c-0.001-2.305-0.002-4.64-0.003-7c0-1.18,0-2.367-0.001-3.56l0-1.794l0-0.9v-0.451
							v-0.226v-0.113v-0.057V89.12v-0.014c-0.232,0.229,0.314-0.329,0.265-0.27c13.587,0.009,26.466,0.017,37.866,0.025l0.237,0
							l-0.001,0.236c-0.048,15.291-0.089,28.213-0.117,37.339c-0.027,4.512-0.048,8.083-0.063,10.554
							c-0.012,1.197-0.022,2.125-0.028,2.78c-0.006,0.297-0.01,0.529-0.014,0.708C303.624,140.634,303.62,140.712,303.615,140.707z"
							/>
					</g>
				</g>
				<g>
					<g>
						<path style="fill:#263238;" d="M312.664,291.982c0,0-0.01-0.217-0.015-0.628c-0.004-0.423-0.009-1.029-0.015-1.823
							c-0.007-1.612-0.018-3.975-0.031-7.037c-0.016-6.139-0.039-15.069-0.069-26.297c-0.029-22.439-0.07-54.047-0.118-90.787
							l0.248,0.248c-17.082,0.004-35.667,0.008-54.953,0.012h-0.009l0.26-0.26c-0.029,49.293-0.055,93.991-0.074,126.572
							l-0.186-0.186c16.949,0.043,30.665,0.077,40.16,0.101c4.748,0.02,8.437,0.036,10.954,0.046c1.248,0.009,2.203,0.016,2.86,0.02
							C312.323,291.969,312.664,291.982,312.664,291.982s-0.315,0.013-0.95,0.019c-0.65,0.005-1.593,0.011-2.826,0.02
							c-2.508,0.011-6.183,0.026-10.913,0.046c-9.522,0.024-23.277,0.058-40.273,0.1l-0.187,0l0-0.187
							c-0.019-32.581-0.045-77.279-0.074-126.572l0-0.26h0.261h0.009c19.287,0.004,37.871,0.008,54.953,0.012l0.249,0l0,0.248
							c-0.048,36.807-0.089,68.474-0.118,90.955c-0.029,11.203-0.053,20.115-0.069,26.24c-0.014,3.039-0.024,5.385-0.031,6.985
							c-0.007,0.781-0.012,1.378-0.015,1.794C312.674,291.785,312.664,291.982,312.664,291.982z"/>
					</g>
				</g>
				<g>
					<g>
						<path style="fill:#263238;" d="M303.615,284.969c0,0-0.011-0.196-0.016-0.563c-0.004-0.381-0.009-0.922-0.016-1.628
							c-0.008-1.443-0.018-3.548-0.032-6.271c-0.017-5.468-0.041-13.403-0.071-23.35c-0.029-19.88-0.07-47.784-0.117-79.945
							l0.252,0.252c-11.932,0.003-24.699,0.005-37.863,0.008h-0.007l0.26-0.26c-0.035,44.681-0.067,84.78-0.088,111.757
							l-0.172-0.172c11.839,0.04,21.283,0.072,27.786,0.094c3.247,0.018,5.757,0.033,7.473,0.042
							c0.843,0.008,1.489,0.014,1.94,0.018C303.383,284.957,303.615,284.969,303.615,284.969s-0.209,0.012-0.636,0.018
							c-0.445,0.004-1.08,0.01-1.91,0.018c-1.707,0.01-4.204,0.024-7.434,0.042c-6.527,0.022-16.007,0.054-27.89,0.094l-0.172,0.001
							l0-0.173c-0.021-26.977-0.053-67.076-0.088-111.757l0-0.26h0.261h0.007c13.164,0.003,25.931,0.006,37.863,0.008h0.252l0,0.252
							c-0.047,32.231-0.088,60.195-0.117,80.118c-0.03,9.922-0.054,17.838-0.071,23.292c-0.014,2.7-0.025,4.787-0.033,6.218
							c-0.007,0.693-0.012,1.223-0.016,1.598C303.626,284.794,303.615,284.969,303.615,284.969z"/>
					</g>
				</g>
				<g>
					<g>
						<path style="fill:#263238;" d="M312.664,452.281c0,0-0.01-0.217-0.015-0.628c-0.004-0.423-0.009-1.029-0.015-1.823
							c-0.007-1.612-0.018-3.975-0.031-7.037c-0.016-6.139-0.039-15.069-0.069-26.297c-0.029-22.439-0.07-54.048-0.118-90.787
							l0.248,0.248c-17.082,0.004-35.667,0.008-54.953,0.012h-0.009l0.26-0.26c-0.029,49.293-0.055,93.991-0.074,126.572
							l-0.186-0.186c16.949,0.043,30.665,0.077,40.16,0.101c4.748,0.02,8.437,0.036,10.954,0.046c1.248,0.009,2.203,0.016,2.86,0.02
							C312.323,452.268,312.664,452.281,312.664,452.281s-0.315,0.013-0.95,0.019c-0.65,0.005-1.593,0.011-2.826,0.02
							c-2.508,0.011-6.183,0.026-10.913,0.046c-9.522,0.024-23.277,0.058-40.273,0.101l-0.187,0l0-0.187
							c-0.019-32.581-0.045-77.279-0.074-126.572l0-0.261h0.261h0.009c19.287,0.004,37.871,0.009,54.953,0.012l0.249,0l0,0.248
							c-0.048,36.807-0.089,68.474-0.118,90.954c-0.029,11.203-0.053,20.115-0.069,26.24c-0.014,3.039-0.024,5.385-0.031,6.986
							c-0.007,0.781-0.012,1.378-0.015,1.794C312.674,452.084,312.664,452.281,312.664,452.281z"/>
					</g>
				</g>
				<g>
					<g>
						<path style="fill:#263238;" d="M303.615,445.268c0,0-0.011-0.196-0.016-0.563c-0.004-0.381-0.009-0.922-0.016-1.628
							c-0.008-1.443-0.018-3.548-0.032-6.271c-0.017-5.468-0.041-13.403-0.071-23.35c-0.029-19.88-0.07-47.784-0.117-79.945
							l0.252,0.252c-11.932,0.003-24.699,0.006-37.863,0.009h-0.007l0.26-0.26c-0.035,44.681-0.067,84.78-0.088,111.757
							l-0.172-0.172c11.839,0.04,21.283,0.072,27.786,0.094c3.247,0.018,5.757,0.033,7.473,0.042
							c0.843,0.008,1.489,0.014,1.94,0.018C303.383,445.256,303.615,445.268,303.615,445.268s-0.209,0.012-0.636,0.018
							c-0.445,0.004-1.08,0.01-1.91,0.018c-1.707,0.01-4.204,0.024-7.434,0.042c-6.527,0.022-16.007,0.054-27.89,0.094l-0.172,0
							l0-0.173c-0.021-26.977-0.053-67.076-0.088-111.757l0-0.26h0.261h0.007c13.164,0.003,25.931,0.006,37.863,0.009l0.252,0
							l0,0.252c-0.047,32.231-0.088,60.195-0.117,80.118c-0.03,9.922-0.054,17.837-0.071,23.292c-0.014,2.7-0.025,4.787-0.033,6.218
							c-0.007,0.693-0.012,1.223-0.016,1.598C303.626,445.093,303.615,445.268,303.615,445.268z"/>
					</g>
				</g>
				<g>
					<g>
						<path style="fill:#263238;" d="M266.63,140.685c0.091,0.112-2.013,1.975-4.699,4.161c-2.687,2.187-4.937,3.869-5.028,3.757
							c-0.091-0.112,2.013-1.974,4.699-4.161C264.288,142.255,266.539,140.573,266.63,140.685z"/>
					</g>
				</g>
				<g>
					<g>
						<path style="fill:#263238;" d="M312.975,148.089c-0.075,0.115-2.321-1.232-4.817-3.272c-2.502-2.035-4.273-3.964-4.175-4.061
							c0.105-0.107,2.025,1.641,4.504,3.657C310.96,146.436,313.059,147.964,312.975,148.089z"/>
					</g>
				</g>
				<g>
					<g>
						<path style="fill:#263238;" d="M311.845,82.994c0.085,0.116-1.773,1.611-4.148,3.338c-2.376,1.728-4.37,3.034-4.455,2.918
							c-0.085-0.116,1.772-1.611,4.148-3.339C309.766,84.184,311.761,82.878,311.845,82.994z"/>
					</g>
				</g>
				<g>
					<g>
						<path style="fill:#263238;" d="M265.904,88.242c-0.066,0.121-2.172-0.92-4.55-2.562c-2.383-1.637-4.107-3.232-4.017-3.338
							c0.095-0.115,1.952,1.287,4.312,2.909C264.004,86.878,265.977,88.112,265.904,88.242z"/>
					</g>
				</g>
				<g>
					<g>
						<path style="fill:#263238;" d="M265.547,173.372c-0.06,0.113-2.414-1.264-4.611-3.763c-2.214-2.486-3.293-4.99-3.174-5.036
							c0.141-0.077,1.402,2.266,3.564,4.69C263.469,171.704,265.641,173.242,265.547,173.372z"/>
					</g>
				</g>
				<g>
					<g>
						<path style="fill:#263238;" d="M311.977,165.351c0.095,0.108-1.65,1.797-3.897,3.772c-2.248,1.976-4.146,3.489-4.241,3.381
							c-0.095-0.108,1.65-1.797,3.898-3.772C309.983,166.756,311.882,165.243,311.977,165.351z"/>
					</g>
				</g>
				<g>
					<g>
						<path style="fill:#263238;" d="M265.529,285.545c0.084,0.126-1.742,1.45-3.812,3.289c-2.079,1.831-3.615,3.482-3.73,3.383
							c-0.106-0.085,1.274-1.912,3.385-3.773C263.475,286.576,265.458,285.43,265.529,285.545z"/>
					</g>
				</g>
				<g>
					<g>
						<path style="fill:#263238;" d="M311.118,291.864c-0.098,0.106-1.806-1.313-3.815-3.169c-2.01-1.856-3.56-3.446-3.462-3.552
							c0.098-0.106,1.805,1.313,3.815,3.169C309.665,290.168,311.215,291.759,311.118,291.864z"/>
					</g>
				</g>
				<g>
					<g>
						<path style="fill:#263238;" d="M266.462,335.011c-0.104,0.1-2.172-1.885-4.618-4.432c-2.447-2.548-4.346-4.694-4.243-4.793
							s2.171,1.884,4.618,4.432C264.666,332.765,266.565,334.911,266.462,335.011z"/>
					</g>
				</g>
				<g>
					<g>
						<path style="fill:#263238;" d="M312.475,325.389c0.1,0.104-1.784,2.079-4.206,4.413c-2.424,2.334-4.468,4.142-4.568,4.038
							c-0.1-0.104,1.783-2.079,4.207-4.413C310.33,327.094,312.375,325.286,312.475,325.389z"/>
					</g>
				</g>
				<g>
					<g>
						<path style="fill:#263238;" d="M264.632,444.617c0.107,0.096-1.34,1.87-3.232,3.96c-1.892,2.091-3.512,3.707-3.618,3.611
							c-0.107-0.096,1.34-1.869,3.232-3.96C262.905,446.137,264.525,444.52,264.632,444.617z"/>
					</g>
				</g>
				<g>
					<g>
						<path style="fill:#263238;" d="M311.754,452.279c-0.085,0.11-2.078-1.303-4.269-3.36c-2.197-2.054-3.736-3.95-3.632-4.042
							c0.111-0.1,1.81,1.626,3.988,3.661C310.013,450.578,311.847,452.162,311.754,452.279z"/>
					</g>
				</g>
			</g>
			<g>
				<g>
					<g>
						<path style="fill:#263238;" d="M385.814,149.086c0,0-0.009-0.116-0.013-0.331c-0.003-0.231-0.008-0.545-0.013-0.952
							c-0.006-0.853-0.016-2.084-0.028-3.681c-0.014-3.225-0.035-7.917-0.062-13.859c-0.028-11.89-0.069-28.783-0.116-48.874
							l0.232,0.232c-16.329,0.008-35.091,0.018-54.956,0.028h-0.006l0.26-0.26c-0.016,25.045-0.031,48.332-0.043,67.697
							l-0.217-0.217c16.533,0.047,30.245,0.085,39.843,0.112c4.795,0.024,8.561,0.043,11.149,0.056
							c1.277,0.011,2.26,0.019,2.945,0.025C385.457,149.07,385.814,149.086,385.814,149.086s-0.325,0.016-0.979,0.024
							c-0.676,0.006-1.645,0.014-2.904,0.025c-2.576,0.013-6.326,0.032-11.1,0.056c-9.631,0.027-23.39,0.066-39.98,0.112
							l-0.217,0.001l0-0.218c-0.012-19.365-0.027-42.652-0.043-67.697l0-0.26h0.261h0.006c19.865,0.01,38.627,0.02,54.956,0.028
							l0.233,0l-0.001,0.233c-0.048,20.153-0.088,37.098-0.117,49.024c-0.026,5.92-0.047,10.594-0.062,13.807
							c-0.012,1.577-0.021,2.792-0.028,3.635c-0.006,0.396-0.01,0.702-0.013,0.927C385.823,148.987,385.819,149.09,385.814,149.086z
							"/>
					</g>
				</g>
				<g>
					<g>
						<path style="fill:#263238;" d="M376.766,140.707c-0.005-0.005-0.009-0.092-0.014-0.258c-0.003-0.186-0.008-0.426-0.014-0.734
							c-0.007-0.665-0.016-1.61-0.028-2.827c-0.015-2.483-0.036-6.073-0.063-10.607c-0.029-9.088-0.069-21.957-0.117-37.185
							l0.236,0.236c-11.4,0.007-24.279,0.016-37.866,0.024c-0.064,0.055,0.49-0.487,0.256-0.25v0.014v0.028v0.057v0.113v0.226v0.451
							l0,0.9l0,1.794c0,1.193,0,2.38-0.001,3.56c-0.001,2.361-0.002,4.695-0.002,7c-0.003,4.61-0.006,9.1-0.009,13.442
							c-0.013,8.681-0.025,16.765-0.035,24.016l-0.212-0.212c11.435,0.046,20.873,0.084,27.479,0.111
							c3.29,0.023,5.873,0.042,7.66,0.054c0.868,0.01,1.542,0.018,2.023,0.024C376.517,140.692,376.766,140.707,376.766,140.707
							s-0.218,0.015-0.663,0.023c-0.472,0.006-1.132,0.014-1.983,0.024c-1.776,0.013-4.343,0.031-7.613,0.054
							c-6.637,0.027-16.121,0.065-27.612,0.111l-0.212,0.001l0-0.213c-0.011-7.25-0.022-15.335-0.035-24.016
							c-0.003-4.342-0.006-8.832-0.009-13.442c-0.001-2.305-0.002-4.64-0.003-7c0-1.18,0-2.367-0.001-3.56l0-1.794l0-0.9v-0.451
							v-0.226v-0.113v-0.057V89.12v-0.014c-0.232,0.229,0.314-0.329,0.265-0.27c13.587,0.009,26.466,0.017,37.866,0.025l0.237,0
							l-0.001,0.236c-0.048,15.291-0.089,28.213-0.117,37.339c-0.027,4.512-0.048,8.083-0.063,10.554
							c-0.012,1.197-0.022,2.125-0.028,2.78c-0.006,0.297-0.01,0.529-0.014,0.708C376.775,140.634,376.77,140.712,376.766,140.707z"
							/>
					</g>
				</g>
				<g>
					<g>
						<path style="fill:#263238;" d="M385.814,291.982c0,0-0.01-0.217-0.015-0.628c-0.004-0.423-0.009-1.029-0.015-1.823
							c-0.007-1.612-0.018-3.975-0.031-7.037c-0.016-6.139-0.039-15.069-0.069-26.297c-0.029-22.439-0.07-54.047-0.118-90.787
							l0.248,0.248c-17.082,0.004-35.667,0.008-54.953,0.012h-0.009l0.26-0.26c-0.029,49.293-0.055,93.991-0.074,126.572
							l-0.186-0.186c16.949,0.043,30.665,0.077,40.16,0.101c4.748,0.02,8.437,0.036,10.954,0.046c1.248,0.009,2.202,0.016,2.86,0.02
							C385.473,291.969,385.814,291.982,385.814,291.982s-0.315,0.013-0.95,0.019c-0.65,0.005-1.593,0.011-2.826,0.02
							c-2.508,0.011-6.183,0.026-10.913,0.046c-9.522,0.024-23.277,0.058-40.273,0.1l-0.186,0l0-0.187
							c-0.019-32.581-0.045-77.279-0.074-126.572l0-0.26h0.261h0.009c19.287,0.004,37.871,0.008,54.953,0.012l0.249,0l0,0.248
							c-0.048,36.807-0.089,68.474-0.118,90.955c-0.029,11.203-0.053,20.115-0.069,26.24c-0.014,3.039-0.024,5.385-0.031,6.985
							c-0.007,0.781-0.012,1.378-0.015,1.794C385.824,291.785,385.814,291.982,385.814,291.982z"/>
					</g>
				</g>
				<g>
					<g>
						<path style="fill:#263238;" d="M376.766,284.969c0,0-0.011-0.196-0.016-0.563c-0.004-0.381-0.009-0.922-0.016-1.628
							c-0.008-1.443-0.018-3.548-0.032-6.271c-0.017-5.468-0.041-13.403-0.071-23.35c-0.029-19.88-0.07-47.784-0.117-79.945
							l0.252,0.252c-11.932,0.003-24.699,0.005-37.863,0.008h-0.007l0.26-0.26c-0.035,44.681-0.067,84.78-0.088,111.757
							l-0.172-0.172c11.839,0.04,21.283,0.072,27.786,0.094c3.247,0.018,5.757,0.033,7.473,0.042
							c0.844,0.008,1.489,0.014,1.94,0.018C376.533,284.957,376.766,284.969,376.766,284.969s-0.209,0.012-0.636,0.018
							c-0.445,0.004-1.08,0.01-1.91,0.018c-1.707,0.01-4.204,0.024-7.434,0.042c-6.527,0.022-16.007,0.054-27.89,0.094l-0.172,0.001
							l0-0.173c-0.021-26.977-0.053-67.076-0.088-111.757l0-0.26h0.261h0.007c13.164,0.003,25.931,0.006,37.863,0.008h0.252l0,0.252
							c-0.047,32.231-0.088,60.195-0.117,80.118c-0.03,9.922-0.054,17.838-0.071,23.292c-0.014,2.7-0.025,4.787-0.032,6.218
							c-0.007,0.693-0.012,1.223-0.016,1.598C376.776,284.794,376.766,284.969,376.766,284.969z"/>
					</g>
				</g>
				<g>
					<g>
						<path style="fill:#263238;" d="M385.814,452.281c0,0-0.01-0.217-0.015-0.628c-0.004-0.423-0.009-1.029-0.015-1.823
							c-0.007-1.612-0.018-3.975-0.031-7.037c-0.016-6.139-0.039-15.069-0.069-26.297c-0.029-22.439-0.07-54.048-0.118-90.787
							l0.248,0.248c-17.082,0.004-35.667,0.008-54.953,0.012h-0.009l0.26-0.26c-0.029,49.293-0.055,93.991-0.074,126.572
							l-0.186-0.186c16.949,0.043,30.665,0.077,40.16,0.101c4.748,0.02,8.437,0.036,10.954,0.046c1.248,0.009,2.202,0.016,2.86,0.02
							C385.473,452.268,385.814,452.281,385.814,452.281s-0.315,0.013-0.95,0.019c-0.65,0.005-1.593,0.011-2.826,0.02
							c-2.508,0.011-6.183,0.026-10.913,0.046c-9.522,0.024-23.277,0.058-40.273,0.101l-0.186,0l0-0.187
							c-0.019-32.581-0.045-77.279-0.074-126.572l0-0.261h0.261h0.009c19.287,0.004,37.871,0.009,54.953,0.012l0.249,0l0,0.248
							c-0.048,36.807-0.089,68.474-0.118,90.954c-0.029,11.203-0.053,20.115-0.069,26.24c-0.014,3.039-0.024,5.385-0.031,6.986
							c-0.007,0.781-0.012,1.378-0.015,1.794C385.824,452.084,385.814,452.281,385.814,452.281z"/>
					</g>
				</g>
				<g>
					<g>
						<path style="fill:#263238;" d="M376.766,445.268c0,0-0.011-0.196-0.016-0.563c-0.004-0.381-0.009-0.922-0.016-1.628
							c-0.008-1.443-0.018-3.548-0.032-6.271c-0.017-5.468-0.041-13.403-0.071-23.35c-0.029-19.88-0.07-47.784-0.117-79.945
							l0.252,0.252c-11.932,0.003-24.699,0.006-37.863,0.009h-0.007l0.26-0.26c-0.035,44.681-0.067,84.78-0.088,111.757
							l-0.172-0.172c11.839,0.04,21.283,0.072,27.786,0.094c3.247,0.018,5.757,0.033,7.473,0.042
							c0.844,0.008,1.489,0.014,1.94,0.018C376.533,445.256,376.766,445.268,376.766,445.268s-0.209,0.012-0.636,0.018
							c-0.445,0.004-1.08,0.01-1.91,0.018c-1.707,0.01-4.204,0.024-7.434,0.042c-6.527,0.022-16.007,0.054-27.89,0.094l-0.172,0
							l0-0.173c-0.021-26.977-0.053-67.076-0.088-111.757l0-0.26h0.261h0.007c13.164,0.003,25.931,0.006,37.863,0.009l0.252,0
							l0,0.252c-0.047,32.231-0.088,60.195-0.117,80.118c-0.03,9.922-0.054,17.837-0.071,23.292c-0.014,2.7-0.025,4.787-0.032,6.218
							c-0.007,0.693-0.012,1.223-0.016,1.598C376.776,445.093,376.766,445.268,376.766,445.268z"/>
					</g>
				</g>
				<g>
					<g>
						<path style="fill:#263238;" d="M339.78,140.685c0.091,0.112-2.013,1.975-4.699,4.161c-2.687,2.187-4.937,3.869-5.028,3.757
							c-0.091-0.112,2.013-1.974,4.699-4.161C337.438,142.255,339.69,140.573,339.78,140.685z"/>
					</g>
				</g>
				<g>
					<g>
						<path style="fill:#263238;" d="M386.126,148.089c-0.075,0.115-2.321-1.232-4.817-3.272c-2.502-2.035-4.273-3.964-4.175-4.061
							c0.105-0.107,2.025,1.641,4.504,3.657C384.111,146.436,386.209,147.964,386.126,148.089z"/>
					</g>
				</g>
				<g>
					<g>
						<path style="fill:#263238;" d="M384.995,82.994c0.085,0.116-1.773,1.611-4.148,3.338c-2.376,1.728-4.37,3.034-4.455,2.918
							c-0.085-0.116,1.772-1.611,4.148-3.339C382.916,84.184,384.911,82.878,384.995,82.994z"/>
					</g>
				</g>
				<g>
					<g>
						<path style="fill:#263238;" d="M339.054,88.242c-0.066,0.121-2.172-0.92-4.55-2.562c-2.383-1.637-4.107-3.232-4.017-3.338
							c0.095-0.115,1.952,1.287,4.312,2.909C337.155,86.878,339.127,88.112,339.054,88.242z"/>
					</g>
				</g>
				<g>
					<g>
						<path style="fill:#263238;" d="M338.698,173.372c-0.06,0.113-2.414-1.264-4.611-3.763c-2.214-2.486-3.293-4.99-3.174-5.036
							c0.141-0.077,1.402,2.266,3.564,4.69C336.619,171.704,338.791,173.242,338.698,173.372z"/>
					</g>
				</g>
				<g>
					<g>
						<path style="fill:#263238;" d="M385.127,165.351c0.095,0.108-1.65,1.797-3.897,3.772c-2.248,1.976-4.147,3.489-4.241,3.381
							c-0.095-0.108,1.65-1.797,3.898-3.772C383.133,166.756,385.032,165.243,385.127,165.351z"/>
					</g>
				</g>
				<g>
					<g>
						<path style="fill:#263238;" d="M338.68,285.545c0.084,0.126-1.742,1.45-3.812,3.289c-2.079,1.831-3.615,3.482-3.73,3.383
							c-0.106-0.085,1.274-1.912,3.385-3.773C336.626,286.576,338.608,285.43,338.68,285.545z"/>
					</g>
				</g>
				<g>
					<g>
						<path style="fill:#263238;" d="M384.268,291.864c-0.098,0.106-1.806-1.313-3.815-3.169c-2.01-1.856-3.56-3.446-3.462-3.552
							c0.098-0.106,1.806,1.313,3.816,3.169C382.815,290.168,384.365,291.759,384.268,291.864z"/>
					</g>
				</g>
				<g>
					<g>
						<path style="fill:#263238;" d="M339.612,335.011c-0.104,0.1-2.172-1.885-4.618-4.432c-2.447-2.548-4.346-4.694-4.243-4.793
							c0.104-0.1,2.171,1.884,4.618,4.432C337.816,332.765,339.716,334.911,339.612,335.011z"/>
					</g>
				</g>
				<g>
					<g>
						<path style="fill:#263238;" d="M385.625,325.389c0.1,0.104-1.784,2.079-4.206,4.413c-2.424,2.334-4.468,4.142-4.568,4.038
							c-0.1-0.104,1.783-2.079,4.207-4.413C383.48,327.094,385.526,325.286,385.625,325.389z"/>
					</g>
				</g>
				<g>
					<g>
						<path style="fill:#263238;" d="M337.782,444.617c0.107,0.096-1.341,1.87-3.232,3.96c-1.892,2.091-3.512,3.707-3.618,3.611
							c-0.107-0.096,1.34-1.869,3.232-3.96C336.055,446.137,337.675,444.52,337.782,444.617z"/>
					</g>
				</g>
				<g>
					<g>
						<path style="fill:#263238;" d="M384.904,452.279c-0.085,0.11-2.078-1.303-4.269-3.36c-2.197-2.054-3.736-3.95-3.632-4.042
							c0.111-0.1,1.81,1.626,3.988,3.661C383.164,450.578,384.997,452.162,384.904,452.279z"/>
					</g>
				</g>
			</g>
		</g>
	</g>
</g>
<g id="Box">
	<g>
		<g>
			<g>
				<g>
					<rect x="371.01" y="382.588" style="fill:#E8505B;" width="122.657" height="88.181"/>
				</g>
				<g>
					<path style="fill:#263238;" d="M403.909,382.588c0.175,0,0,18.618,0,18.618h-9.079v-18.618H403.909z"/>
				</g>
			</g>
			<g style="opacity:0.4;">
				
					<rect x="432.339" y="382.588" transform="matrix(-1 -1.224647e-16 1.224647e-16 -1 926.0065 853.356)" width="61.329" height="88.181"/>
			</g>
		</g>
		<g>
			<rect x="374.749" y="453.505" style="fill:#FAFAFA;" width="16.419" height="11.62"/>
			<path style="fill:#263238;" d="M391.194,465.151h-16.47V453.48h16.47V465.151z M374.774,465.1h16.369v-11.569h-16.369V465.1z"/>
		</g>
		<g>
			<rect x="394.199" y="453.505" style="fill:#FAFAFA;" width="8.21" height="11.62"/>
			<path style="fill:#263238;" d="M402.434,465.151h-8.26V453.48h8.26V465.151z M394.225,465.1h8.158v-11.569h-8.158V465.1z"/>
		</g>
	</g>
</g>
</svg>
